<?xml version="1.0" encoding="UTF-8" standalone="no"?>
<!-- Created with Inkscape (http://www.inkscape.org/) -->

<svg
   xmlns:dc="http://purl.org/dc/elements/1.1/"
   xmlns:cc="http://creativecommons.org/ns#"
   xmlns:rdf="http://www.w3.org/1999/02/22-rdf-syntax-ns#"
   xmlns:svg="http://www.w3.org/2000/svg"
   xmlns="http://www.w3.org/2000/svg"
   xmlns:sodipodi="http://sodipodi.sourceforge.net/DTD/sodipodi-0.dtd"
   xmlns:inkscape="http://www.inkscape.org/namespaces/inkscape"
   width="700.94055"
   height="218.50995"
   id="svg2"
   version="1.1"
   inkscape:version="0.91 r13725"
   sodipodi:docname="depinjection.svg">
  <defs
     id="defs4">
    <marker
       inkscape:stockid="Arrow2Lend"
       orient="auto"
       refY="0"
       refX="0"
       id="Arrow2Lend"
       style="overflow:visible">
      <path
         id="path3883"
         style="fill-rule:evenodd;stroke-width:0.625;stroke-linejoin:round"
         d="M 8.7185878,4.0337352 -2.2072895,0.01601326 8.7185884,-4.0017078 c -1.7454984,2.3720609 -1.7354408,5.6174519 -6e-7,8.035443 z"
         transform="matrix(-1.1,0,0,-1.1,-1.1,0)"
         inkscape:connector-curvature="0" />
    </marker>
  </defs>
  <sodipodi:namedview
     id="base"
     pagecolor="#ffffff"
     bordercolor="#666666"
     borderopacity="1.0"
     inkscape:pageopacity="0.0"
     inkscape:pageshadow="2"
     inkscape:zoom="1"
     inkscape:cx="320.24463"
     inkscape:cy="51.206658"
     inkscape:document-units="px"
     inkscape:current-layer="layer1"
     showgrid="false"
     inkscape:window-width="1431"
     inkscape:window-height="776"
     inkscape:window-x="65"
     inkscape:window-y="24"
     inkscape:window-maximized="0"
     showguides="true"
     inkscape:guide-bbox="true"
     fit-margin-top="0"
     fit-margin-left="0"
     fit-margin-right="0"
     fit-margin-bottom="0" />
  <metadata
     id="metadata7">
    <rdf:RDF>
      <cc:Work
         rdf:about="">
        <dc:format>image/svg+xml</dc:format>
        <dc:type
           rdf:resource="http://purl.org/dc/dcmitype/StillImage" />
        <dc:title></dc:title>
      </cc:Work>
    </rdf:RDF>
  </metadata>
  <g
     inkscape:label="Layer 1"
     inkscape:groupmode="layer"
     id="layer1"
     transform="translate(-57.058334,19.777455)">
    <rect
       y="-13.961671"
       x="57.404282"
       height="95.727615"
       width="154.63068"
       id="rect3204"
       style="color:#000000;display:inline;overflow:visible;visibility:visible;fill:#816647;fill-opacity:1;fill-rule:evenodd;stroke:#000000;stroke-width:0.69189519;stroke-linecap:butt;stroke-linejoin:miter;stroke-miterlimit:4;stroke-dasharray:none;stroke-dashoffset:0;stroke-opacity:0.98654713;marker:none;enable-background:accumulate" />
    <path
       style="fill:none;stroke:#000000;stroke-width:1.43947864px;stroke-linecap:butt;stroke-linejoin:miter;stroke-opacity:1"
       d="m 211.74858,-3.8849818 147.01827,0"
       id="path3206"
       inkscape:connector-curvature="0" />
    <g
       id="g4253"
       transform="matrix(1.4394787,0,0,1.4394787,-25.075921,-87.338692)">
      <g
         transform="matrix(0.53343351,0,0,0.5327953,92.442465,-97.719764)"
         id="text3213"
         style="font-style:normal;font-weight:normal;font-size:40px;line-height:125%;font-family:Sans;letter-spacing:0px;word-spacing:0px;fill:#000000;fill-opacity:1;stroke:none">
        <path
           inkscape:connector-curvature="0"
           id="path3218"
           style="font-variant:normal;font-stretch:normal;font-family:NanumGothic;-inkscape-font-specification:NanumGothic;text-align:start;writing-mode:lr-tb;text-anchor:start"
           d="m 348.21897,304.69944 c 0.15998,-0.0533 0.30664,-0.0533 0.44,0 0.13331,0.0267 0.19998,0.12 0.2,0.28 l 0.08,1.56 c 0.0266,0.34666 -0.16002,0.58666 -0.56,0.72 -0.88002,0.29333 -1.78669,0.50666 -2.72,0.64 -0.93335,0.13333 -2.10668,0.19999 -3.52,0.2 -4.64001,-1e-5 -8.33334,-1.41334 -11.08,-4.24 -1.36,-1.38667 -2.37334,-3 -3.04,-4.84 -0.64,-1.84 -0.96,-3.91999 -0.96,-6.24 0,-4.55999 1.37333,-8.25332 4.12,-11.08 2.79999,-2.82664 6.45332,-4.23998 10.96,-4.24 0.63998,2e-5 1.21332,0.0134 1.72,0.04 0.53332,0.0267 1.03998,0.0667 1.52,0.12 0.50665,0.0534 0.99998,0.12002 1.48,0.2 0.47998,0.08 0.98665,0.18669 1.52,0.32 0.39998,0.08 0.58664,0.33336 0.56,0.76 l -0.08,1.6 c -0.0534,0.37335 -0.25336,0.49335 -0.6,0.36 -1.04002,-0.34665 -2.02669,-0.57331 -2.96,-0.68 -0.93335,-0.13331 -1.98668,-0.19998 -3.16,-0.2 -3.76001,2e-5 -6.76001,1.20002 -9,3.6 -2.08,2.32002 -3.12,5.38668 -3.12,9.2 0,1.92001 0.25333,3.65334 0.76,5.2 0.50666,1.54667 1.27999,2.89333 2.32,4.04 2.15999,2.4 5.17332,3.58666 9.04,3.56 1.11998,-0.0267 2.22665,-0.10667 3.32,-0.24 1.11998,-0.13334 2.03998,-0.34667 2.76,-0.64" />
      </g>
      <circle
         style="fill:#ffffff;stroke:#000000;stroke-width:2.34471297;stroke-miterlimit:4;stroke-dasharray:none"
         transform="matrix(0.4267468,0,0,0.42623623,62.159136,-12.652728)"
         id="path3220"
         cx="499.01535"
         cy="166.96347"
         r="12.626906" />
    </g>
    <text
       sodipodi:linespacing="125%"
       id="text3243"
       y="41.408222"
       x="84.46904"
       style="font-style:normal;font-weight:normal;font-size:20.07974243px;line-height:125%;font-family:Sans;letter-spacing:0px;word-spacing:0px;fill:#000000;fill-opacity:1;stroke:none"
       xml:space="preserve"
       transform="scale(1.0005987,0.99940164)"><tspan
         y="41.408222"
         x="84.46904"
         id="tspan3245"
         sodipodi:role="line">reahl-web</tspan></text>
    <path
       inkscape:connector-curvature="0"
       id="path3264"
       d="m 211.74858,22.455966 147.01827,0"
       style="fill:none;stroke:#000000;stroke-width:1.43947864px;stroke-linecap:butt;stroke-linejoin:miter;stroke-opacity:1" />
    <g
       id="g4248"
       transform="matrix(1.4394787,0,0,1.4394787,-25.075921,-87.338692)">
      <g
         style="font-style:normal;font-weight:normal;font-size:40px;line-height:125%;font-family:Sans;letter-spacing:0px;word-spacing:0px;fill:#000000;fill-opacity:1;stroke:none"
         id="g3266"
         transform="matrix(0.53343351,0,0,0.5327953,92.442465,-79.420808)">
        <path
           d="m 348.21897,304.69944 c 0.15998,-0.0533 0.30664,-0.0533 0.44,0 0.13331,0.0267 0.19998,0.12 0.2,0.28 l 0.08,1.56 c 0.0266,0.34666 -0.16002,0.58666 -0.56,0.72 -0.88002,0.29333 -1.78669,0.50666 -2.72,0.64 -0.93335,0.13333 -2.10668,0.19999 -3.52,0.2 -4.64001,-1e-5 -8.33334,-1.41334 -11.08,-4.24 -1.36,-1.38667 -2.37334,-3 -3.04,-4.84 -0.64,-1.84 -0.96,-3.91999 -0.96,-6.24 0,-4.55999 1.37333,-8.25332 4.12,-11.08 2.79999,-2.82664 6.45332,-4.23998 10.96,-4.24 0.63998,2e-5 1.21332,0.0134 1.72,0.04 0.53332,0.0267 1.03998,0.0667 1.52,0.12 0.50665,0.0534 0.99998,0.12002 1.48,0.2 0.47998,0.08 0.98665,0.18669 1.52,0.32 0.39998,0.08 0.58664,0.33336 0.56,0.76 l -0.08,1.6 c -0.0534,0.37335 -0.25336,0.49335 -0.6,0.36 -1.04002,-0.34665 -2.02669,-0.57331 -2.96,-0.68 -0.93335,-0.13331 -1.98668,-0.19998 -3.16,-0.2 -3.76001,2e-5 -6.76001,1.20002 -9,3.6 -2.08,2.32002 -3.12,5.38668 -3.12,9.2 0,1.92001 0.25333,3.65334 0.76,5.2 0.50666,1.54667 1.27999,2.89333 2.32,4.04 2.15999,2.4 5.17332,3.58666 9.04,3.56 1.11998,-0.0267 2.22665,-0.10667 3.32,-0.24 1.11998,-0.13334 2.03998,-0.34667 2.76,-0.64"
           style="font-variant:normal;font-stretch:normal;font-family:NanumGothic;-inkscape-font-specification:NanumGothic;text-align:start;writing-mode:lr-tb;text-anchor:start"
           id="path3268"
           inkscape:connector-curvature="0" />
      </g>
      <circle
         style="fill:#ffffff;stroke:#000000;stroke-width:2.34471297;stroke-miterlimit:4;stroke-dasharray:none"
         id="path3270"
         transform="matrix(0.4267468,0,0,0.42623623,62.159136,5.6462263)"
         cx="499.01535"
         cy="166.96347"
         r="12.626906" />
    </g>
    <path
       style="fill:none;stroke:#000000;stroke-width:1.43947864px;stroke-linecap:butt;stroke-linejoin:miter;stroke-opacity:1"
       d="m 211.74858,48.40955 147.01827,0"
       id="path3276"
       inkscape:connector-curvature="0" />
    <g
       id="g4243"
       transform="matrix(1.4394787,0,0,1.4394787,-25.075921,-87.338692)">
      <g
         transform="matrix(0.53343351,0,0,0.5327953,92.442465,-61.390958)"
         id="g3278"
         style="font-style:normal;font-weight:normal;font-size:40px;line-height:125%;font-family:Sans;letter-spacing:0px;word-spacing:0px;fill:#000000;fill-opacity:1;stroke:none">
        <path
           inkscape:connector-curvature="0"
           id="path3280"
           style="font-variant:normal;font-stretch:normal;font-family:NanumGothic;-inkscape-font-specification:NanumGothic;text-align:start;writing-mode:lr-tb;text-anchor:start"
           d="m 348.21897,304.69944 c 0.15998,-0.0533 0.30664,-0.0533 0.44,0 0.13331,0.0267 0.19998,0.12 0.2,0.28 l 0.08,1.56 c 0.0266,0.34666 -0.16002,0.58666 -0.56,0.72 -0.88002,0.29333 -1.78669,0.50666 -2.72,0.64 -0.93335,0.13333 -2.10668,0.19999 -3.52,0.2 -4.64001,-1e-5 -8.33334,-1.41334 -11.08,-4.24 -1.36,-1.38667 -2.37334,-3 -3.04,-4.84 -0.64,-1.84 -0.96,-3.91999 -0.96,-6.24 0,-4.55999 1.37333,-8.25332 4.12,-11.08 2.79999,-2.82664 6.45332,-4.23998 10.96,-4.24 0.63998,2e-5 1.21332,0.0134 1.72,0.04 0.53332,0.0267 1.03998,0.0667 1.52,0.12 0.50665,0.0534 0.99998,0.12002 1.48,0.2 0.47998,0.08 0.98665,0.18669 1.52,0.32 0.39998,0.08 0.58664,0.33336 0.56,0.76 l -0.08,1.6 c -0.0534,0.37335 -0.25336,0.49335 -0.6,0.36 -1.04002,-0.34665 -2.02669,-0.57331 -2.96,-0.68 -0.93335,-0.13331 -1.98668,-0.19998 -3.16,-0.2 -3.76001,2e-5 -6.76001,1.20002 -9,3.6 -2.08,2.32002 -3.12,5.38668 -3.12,9.2 0,1.92001 0.25333,3.65334 0.76,5.2 0.50666,1.54667 1.27999,2.89333 2.32,4.04 2.15999,2.4 5.17332,3.58666 9.04,3.56 1.11998,-0.0267 2.22665,-0.10667 3.32,-0.24 1.11998,-0.13334 2.03998,-0.34667 2.76,-0.64" />
      </g>
      <circle
         style="fill:#ffffff;stroke:#000000;stroke-width:2.34471297;stroke-miterlimit:4;stroke-dasharray:none"
         transform="matrix(0.4267468,0,0,0.42623623,62.159136,23.676078)"
         id="path3282"
         cx="499.01535"
         cy="166.96347"
         r="12.626906" />
    </g>
    <path
       inkscape:connector-curvature="0"
       id="path3288"
       d="m 211.74858,73.5884 147.01827,0"
       style="fill:none;stroke:#000000;stroke-width:1.43947864px;stroke-linecap:butt;stroke-linejoin:miter;stroke-opacity:1" />
    <g
       id="g4238"
       transform="matrix(1.4394787,0,0,1.4394787,-25.075921,-87.338692)">
      <g
         style="font-style:normal;font-weight:normal;font-size:40px;line-height:125%;font-family:Sans;letter-spacing:0px;word-spacing:0px;fill:#000000;fill-opacity:1;stroke:none"
         id="g3290"
         transform="matrix(0.53343351,0,0,0.5327953,92.442465,-43.899313)">
        <path
           d="m 348.21897,304.69944 c 0.15998,-0.0533 0.30664,-0.0533 0.44,0 0.13331,0.0267 0.19998,0.12 0.2,0.28 l 0.08,1.56 c 0.0266,0.34666 -0.16002,0.58666 -0.56,0.72 -0.88002,0.29333 -1.78669,0.50666 -2.72,0.64 -0.93335,0.13333 -2.10668,0.19999 -3.52,0.2 -4.64001,-1e-5 -8.33334,-1.41334 -11.08,-4.24 -1.36,-1.38667 -2.37334,-3 -3.04,-4.84 -0.64,-1.84 -0.96,-3.91999 -0.96,-6.24 0,-4.55999 1.37333,-8.25332 4.12,-11.08 2.79999,-2.82664 6.45332,-4.23998 10.96,-4.24 0.63998,2e-5 1.21332,0.0134 1.72,0.04 0.53332,0.0267 1.03998,0.0667 1.52,0.12 0.50665,0.0534 0.99998,0.12002 1.48,0.2 0.47998,0.08 0.98665,0.18669 1.52,0.32 0.39998,0.08 0.58664,0.33336 0.56,0.76 l -0.08,1.6 c -0.0534,0.37335 -0.25336,0.49335 -0.6,0.36 -1.04002,-0.34665 -2.02669,-0.57331 -2.96,-0.68 -0.93335,-0.13331 -1.98668,-0.19998 -3.16,-0.2 -3.76001,2e-5 -6.76001,1.20002 -9,3.6 -2.08,2.32002 -3.12,5.38668 -3.12,9.2 0,1.92001 0.25333,3.65334 0.76,5.2 0.50666,1.54667 1.27999,2.89333 2.32,4.04 2.15999,2.4 5.17332,3.58666 9.04,3.56 1.11998,-0.0267 2.22665,-0.10667 3.32,-0.24 1.11998,-0.13334 2.03998,-0.34667 2.76,-0.64"
           style="font-variant:normal;font-stretch:normal;font-family:NanumGothic;-inkscape-font-specification:NanumGothic;text-align:start;writing-mode:lr-tb;text-anchor:start"
           id="path3292"
           inkscape:connector-curvature="0" />
      </g>
      <circle
         style="fill:#ffffff;stroke:#000000;stroke-width:2.34471297;stroke-miterlimit:4;stroke-dasharray:none"
         id="path3294"
         transform="matrix(0.4267468,0,0,0.42623623,62.159136,41.167722)"
         cx="499.01535"
         cy="166.96347"
         r="12.626906" />
    </g>
    <rect
       style="color:#000000;display:inline;overflow:visible;visibility:visible;fill:#816647;fill-opacity:1;fill-rule:evenodd;stroke:#000000;stroke-width:0.69189519;stroke-linecap:butt;stroke-linejoin:miter;stroke-miterlimit:4;stroke-dasharray:none;stroke-dashoffset:0;stroke-opacity:0.98654713;marker:none;enable-background:accumulate"
       id="rect3296"
       width="231.11496"
       height="95.727615"
       x="526.45251"
       y="-19.431507" />
    <text
       xml:space="preserve"
       style="font-style:normal;font-weight:normal;font-size:20.07974243px;line-height:125%;font-family:Sans;letter-spacing:0px;word-spacing:0px;fill:#000000;fill-opacity:1;stroke:none"
       x="539.42328"
       y="35.935078"
       id="text3298"
       sodipodi:linespacing="125%"
       transform="scale(1.0005987,0.99940164)"><tspan
         sodipodi:role="line"
         id="tspan3300"
         x="539.42328"
         y="35.935078">reahl-web-declarative</tspan></text>
    <text
       xml:space="preserve"
       style="font-style:normal;font-weight:normal;font-size:10.56672955px;line-height:125%;font-family:Sans;letter-spacing:0px;word-spacing:0px;fill:#000000;fill-opacity:1;stroke:none"
       x="251.30959"
       y="-8.2460766"
       id="text3302"
       sodipodi:linespacing="125%"
       transform="scale(1.0005987,0.99940164)"><tspan
         sodipodi:role="line"
         id="tspan3304"
         x="251.30959"
         y="-8.2460766">session_class</tspan></text>
    <text
       sodipodi:linespacing="125%"
       id="text3306"
       y="16.459089"
       x="215.82486"
       style="font-style:normal;font-weight:normal;font-size:10.56672955px;line-height:125%;font-family:Sans;letter-spacing:0px;word-spacing:0px;fill:#000000;fill-opacity:1;stroke:none"
       xml:space="preserve"
       transform="scale(1.0005987,0.99940164)"><tspan
         y="16.459089"
         x="215.82486"
         id="tspan3308"
         sodipodi:role="line">persisted_user_input_class</tspan></text>
    <text
       xml:space="preserve"
       style="font-style:normal;font-weight:normal;font-size:10.56672955px;line-height:125%;font-family:Sans;letter-spacing:0px;word-spacing:0px;fill:#000000;fill-opacity:1;stroke:none"
       x="217.77515"
       y="41.26543"
       id="text3310"
       sodipodi:linespacing="125%"
       transform="scale(1.0005987,0.99940164)"><tspan
         sodipodi:role="line"
         id="tspan3312"
         x="217.77515"
         y="41.26543">persisted_exception_class</tspan></text>
    <text
       sodipodi:linespacing="125%"
       id="text3314"
       y="66.071747"
       x="235.55492"
       style="font-style:normal;font-weight:normal;font-size:10.56672955px;line-height:125%;font-family:Sans;letter-spacing:0px;word-spacing:0px;fill:#000000;fill-opacity:1;stroke:none"
       xml:space="preserve"
       transform="scale(1.0005987,0.99940164)"><tspan
         y="66.071747"
         x="235.55492"
         id="tspan3316"
         sodipodi:role="line">persisted_file_class</tspan></text>
    <text
       sodipodi:linespacing="125%"
       id="text3374"
       y="-8.2460766"
       x="409.50998"
       style="font-style:normal;font-weight:normal;font-size:10.56672955px;line-height:125%;font-family:Sans;letter-spacing:0px;word-spacing:0px;fill:#000000;fill-opacity:1;stroke:none"
       xml:space="preserve"
       transform="scale(1.0005987,0.99940164)"><tspan
         y="-8.2460766"
         x="409.50998"
         id="tspan3376"
         sodipodi:role="line">UserSession</tspan></text>
    <text
       xml:space="preserve"
       style="font-style:normal;font-weight:normal;font-size:10.56672955px;line-height:125%;font-family:Sans;letter-spacing:0px;word-spacing:0px;fill:#000000;fill-opacity:1;stroke:none"
       x="426.88733"
       y="16.518591"
       id="text3378"
       sodipodi:linespacing="125%"
       transform="scale(1.0005987,0.99940164)"><tspan
         sodipodi:role="line"
         id="tspan3380"
         x="426.88733"
         y="16.518591">UserInput</tspan></text>
    <text
       sodipodi:linespacing="125%"
       id="text3382"
       y="41.613461"
       x="402.79999"
       style="font-style:normal;font-weight:normal;font-size:10.56672955px;line-height:125%;font-family:Sans;letter-spacing:0px;word-spacing:0px;fill:#000000;fill-opacity:1;stroke:none"
       xml:space="preserve"
       transform="scale(1.0005987,0.99940164)"><tspan
         y="41.613461"
         x="402.79999"
         id="tspan3384"
         sodipodi:role="line">PersistedException</tspan></text>
    <text
       xml:space="preserve"
       style="font-style:normal;font-weight:normal;font-size:10.56672955px;line-height:125%;font-family:Sans;letter-spacing:0px;word-spacing:0px;fill:#000000;fill-opacity:1;stroke:none"
       x="419.79807"
       y="67.038506"
       id="text3386"
       sodipodi:linespacing="125%"
       transform="scale(1.0005987,0.99940164)"><tspan
         sodipodi:role="line"
         id="tspan3388"
         x="419.79807"
         y="67.038506">PersistedFile</tspan></text>
    <path
       inkscape:connector-curvature="0"
       id="path3394"
       d="m 378.59717,-3.8849818 147.01828,0"
       style="fill:none;stroke:#000000;stroke-width:1.43947864px;stroke-linecap:butt;stroke-linejoin:miter;stroke-opacity:1" />
    <path
       style="fill:none;stroke:#000000;stroke-width:1.43947864px;stroke-linecap:butt;stroke-linejoin:miter;stroke-opacity:1"
       d="m 378.92757,22.455966 147.01827,0"
       id="path3396"
       inkscape:connector-curvature="0" />
    <path
       inkscape:connector-curvature="0"
       id="path3398"
       d="m 378.92757,48.40955 147.01827,0"
       style="fill:none;stroke:#000000;stroke-width:1.43947864px;stroke-linecap:butt;stroke-linejoin:miter;stroke-opacity:1" />
    <path
       style="fill:none;stroke:#000000;stroke-width:1.43947864px;stroke-linecap:butt;stroke-linejoin:miter;stroke-opacity:1"
       d="m 379.25796,73.5884 147.01829,0"
       id="path3400"
       inkscape:connector-curvature="0" />
    <path
       style="fill:none;stroke:#000000;stroke-width:1.46017659;stroke-linecap:butt;stroke-linejoin:miter;stroke-miterlimit:4;stroke-dasharray:11.68141286, 11.68141286;stroke-dashoffset:0;stroke-opacity:1"
       d="m 638.65423,76.238984 c 0,0 -80.67303,81.019786 -132.44755,101.157706 -63.71106,24.78068 -158.4763,21.70983 -197.06106,18.36068 -33.43931,-2.90252 -91.07945,-10.31539 -116.4327,-39.59359 C 176.2998,137.20973 165.06575,99.301635 165.06575,99.301635"
       id="path3410"
       inkscape:connector-curvature="0"
       sodipodi:nodetypes="csssc" />
    <g
       id="g3431"
       transform="matrix(0.76786615,0,0,0.76694746,-50.813018,-113.11195)">
      <rect
         y="139.35367"
         x="310.77313"
         height="26.263653"
         width="20.228096"
         id="rect3417"
         style="color:#000000;display:inline;overflow:visible;visibility:visible;fill:#816647;fill-opacity:1;fill-rule:evenodd;stroke:#000000;stroke-width:0.90160167;stroke-linecap:butt;stroke-linejoin:miter;stroke-miterlimit:4;stroke-dasharray:none;stroke-dashoffset:0;stroke-opacity:0.98654713;marker:none;enable-background:accumulate" />
      <rect
         style="color:#000000;display:inline;overflow:visible;visibility:visible;fill:#816647;fill-opacity:1;fill-rule:evenodd;stroke:#000000;stroke-width:0.90160161;stroke-linecap:butt;stroke-linejoin:miter;stroke-miterlimit:4;stroke-dasharray:none;stroke-dashoffset:0;stroke-opacity:0.98654713;marker:none;enable-background:accumulate"
         id="rect3427"
         width="12.108017"
         height="9.3919344"
         x="304.90863"
         y="142.42125" />
      <rect
         y="153.51869"
         x="304.90863"
         height="9.3919344"
         width="12.108017"
         id="rect3429"
         style="color:#000000;display:inline;overflow:visible;visibility:visible;fill:#816647;fill-opacity:1;fill-rule:evenodd;stroke:#000000;stroke-width:0.90160161;stroke-linecap:butt;stroke-linejoin:miter;stroke-miterlimit:4;stroke-dasharray:none;stroke-dashoffset:0;stroke-opacity:0.98654713;marker:none;enable-background:accumulate" />
    </g>
    <g
       id="g3436"
       transform="matrix(0.76786615,0,0,0.76694746,495.6618,-118.09409)">
      <rect
         style="color:#000000;display:inline;overflow:visible;visibility:visible;fill:#816647;fill-opacity:1;fill-rule:evenodd;stroke:#000000;stroke-width:0.90160167;stroke-linecap:butt;stroke-linejoin:miter;stroke-miterlimit:4;stroke-dasharray:none;stroke-dashoffset:0;stroke-opacity:0.98654713;marker:none;enable-background:accumulate"
         id="rect3438"
         width="20.228096"
         height="26.263653"
         x="310.77313"
         y="139.35367" />
      <rect
         y="142.42125"
         x="304.90863"
         height="9.3919344"
         width="12.108017"
         id="rect3440"
         style="color:#000000;display:inline;overflow:visible;visibility:visible;fill:#816647;fill-opacity:1;fill-rule:evenodd;stroke:#000000;stroke-width:0.90160161;stroke-linecap:butt;stroke-linejoin:miter;stroke-miterlimit:4;stroke-dasharray:none;stroke-dashoffset:0;stroke-opacity:0.98654713;marker:none;enable-background:accumulate" />
      <rect
         style="color:#000000;display:inline;overflow:visible;visibility:visible;fill:#816647;fill-opacity:1;fill-rule:evenodd;stroke:#000000;stroke-width:0.90160161;stroke-linecap:butt;stroke-linejoin:miter;stroke-miterlimit:4;stroke-dasharray:none;stroke-dashoffset:0;stroke-opacity:0.98654713;marker:none;enable-background:accumulate"
         id="rect3442"
         width="12.108017"
         height="9.3919344"
         x="304.90863"
         y="153.51869" />
    </g>
    <path
       style="fill:none;stroke:#000000;stroke-width:1.43947864px;stroke-linecap:butt;stroke-linejoin:miter;stroke-opacity:1"
       d="M 189.50184,115.28136 168.09414,93.899286 146.29456,115.6728"
       id="path3425-4"
       inkscape:connector-curvature="0"
       sodipodi:nodetypes="ccc" />
  </g>
</svg>
