<?xml version="1.0" encoding="UTF-8" standalone="no"?>
<!-- Created with Inkscape (http://www.inkscape.org/) -->

<svg
   xmlns:dc="http://purl.org/dc/elements/1.1/"
   xmlns:cc="http://creativecommons.org/ns#"
   xmlns:rdf="http://www.w3.org/1999/02/22-rdf-syntax-ns#"
   xmlns:svg="http://www.w3.org/2000/svg"
   xmlns="http://www.w3.org/2000/svg"
   xmlns:sodipodi="http://sodipodi.sourceforge.net/DTD/sodipodi-0.dtd"
   xmlns:inkscape="http://www.inkscape.org/namespaces/inkscape"
   width="486.88123"
   height="201.53375"
   id="svg2"
   version="1.1"
   inkscape:version="0.48.3.1 r9886"
   sodipodi:docname="ReahlTut-Injection.svg">
  <defs
     id="defs4">
    <marker
       inkscape:stockid="Arrow2Lend"
       orient="auto"
       refY="0"
       refX="0"
       id="Arrow2Lend"
       style="overflow:visible">
      <path
         id="path3883"
         style="fill-rule:evenodd;stroke-width:0.625;stroke-linejoin:round"
         d="M 8.7185878,4.0337352 -2.2072895,0.01601326 8.7185884,-4.0017078 c -1.7454984,2.3720609 -1.7354408,5.6174519 -6e-7,8.035443 z"
         transform="matrix(-1.1,0,0,-1.1,-1.1,0)"
         inkscape:connector-curvature="0" />
    </marker>
  </defs>
  <sodipodi:namedview
     id="base"
     pagecolor="#ffffff"
     bordercolor="#666666"
     borderopacity="1.0"
     inkscape:pageopacity="0.0"
     inkscape:pageshadow="2"
     inkscape:zoom="5.5418183"
     inkscape:cx="225.24463"
     inkscape:cy="140.94243"
     inkscape:document-units="px"
     inkscape:current-layer="layer1"
     showgrid="false"
     inkscape:window-width="1600"
     inkscape:window-height="876"
     inkscape:window-x="0"
     inkscape:window-y="24"
     inkscape:window-maximized="1"
     showguides="true"
     inkscape:guide-bbox="true"
     fit-margin-top="0"
     fit-margin-left="0"
     fit-margin-right="0"
     fit-margin-bottom="0" />
  <metadata
     id="metadata7">
    <rdf:RDF>
      <cc:Work
         rdf:about="">
        <dc:format>image/svg+xml</dc:format>
        <dc:type
           rdf:resource="http://purl.org/dc/dcmitype/StillImage" />
        <dc:title></dc:title>
      </cc:Work>
    </rdf:RDF>
  </metadata>
  <g
     inkscape:label="Layer 1"
     inkscape:groupmode="layer"
     id="layer1"
     transform="translate(-57.058336,-46.934518)">
    <rect
       y="50.97472"
       x="57.298664"
       height="66.501587"
       width="107.4213"
       id="rect3204"
       style="color:#000000;fill:#816647;fill-opacity:1;fill-rule:evenodd;stroke:#000000;stroke-width:0.48065677;stroke-linecap:butt;stroke-linejoin:miter;stroke-miterlimit:4;stroke-opacity:0.98654713;stroke-dasharray:none;stroke-dashoffset:0;marker:none;visibility:visible;display:inline;overflow:visible;enable-background:accumulate" />
    <path
       style="fill:none;stroke:#000000;stroke-width:1px;stroke-linecap:butt;stroke-linejoin:miter;stroke-opacity:1"
       d="m 164.52102,57.974955 102.133,0"
       id="path3206"
       inkscape:connector-curvature="0" />
    <g
       id="g4253">
      <g
         transform="matrix(0.53343351,0,0,0.5327953,92.442465,-97.719764)"
         id="text3213"
         style="font-size:40px;font-style:normal;font-weight:normal;line-height:125%;letter-spacing:0px;word-spacing:0px;fill:#000000;fill-opacity:1;stroke:none;font-family:Sans">
        <path
           inkscape:connector-curvature="0"
           id="path3218"
           style="font-variant:normal;font-stretch:normal;text-align:start;writing-mode:lr-tb;text-anchor:start;font-family:NanumGothic;-inkscape-font-specification:NanumGothic"
           d="m 348.21897,304.69944 c 0.15998,-0.0533 0.30664,-0.0533 0.44,0 0.13331,0.0267 0.19998,0.12 0.2,0.28 l 0.08,1.56 c 0.0266,0.34666 -0.16002,0.58666 -0.56,0.72 -0.88002,0.29333 -1.78669,0.50666 -2.72,0.64 -0.93335,0.13333 -2.10668,0.19999 -3.52,0.2 -4.64001,-1e-5 -8.33334,-1.41334 -11.08,-4.24 -1.36,-1.38667 -2.37334,-3 -3.04,-4.84 -0.64,-1.84 -0.96,-3.91999 -0.96,-6.24 0,-4.55999 1.37333,-8.25332 4.12,-11.08 2.79999,-2.82664 6.45332,-4.23998 10.96,-4.24 0.63998,2e-5 1.21332,0.0134 1.72,0.04 0.53332,0.0267 1.03998,0.0667 1.52,0.12 0.50665,0.0534 0.99998,0.12002 1.48,0.2 0.47998,0.08 0.98665,0.18669 1.52,0.32 0.39998,0.08 0.58664,0.33336 0.56,0.76 l -0.08,1.6 c -0.0534,0.37335 -0.25336,0.49335 -0.6,0.36 -1.04002,-0.34665 -2.02669,-0.57331 -2.96,-0.68 -0.93335,-0.13331 -1.98668,-0.19998 -3.16,-0.2 -3.76001,2e-5 -6.76001,1.20002 -9,3.6 -2.08,2.32002 -3.12,5.38668 -3.12,9.2 0,1.92001 0.25333,3.65334 0.76,5.2 0.50666,1.54667 1.27999,2.89333 2.32,4.04 2.15999,2.4 5.17332,3.58666 9.04,3.56 1.11998,-0.0267 2.22665,-0.10667 3.32,-0.24 1.11998,-0.13334 2.03998,-0.34667 2.76,-0.64" />
      </g>
      <path
         style="fill:#ffffff;stroke:#000000;stroke-width:2.34471295;stroke-miterlimit:4;stroke-dasharray:none"
         transform="matrix(0.4267468,0,0,0.42623623,62.159136,-12.652728)"
         d="m 511.64226,166.96347 a 12.626906,12.626906 0 1 1 -25.25382,0 12.626906,12.626906 0 1 1 25.25382,0 z"
         sodipodi:ry="12.626906"
         sodipodi:rx="12.626906"
         sodipodi:cy="166.96347"
         sodipodi:cx="499.01535"
         id="path3220"
         sodipodi:type="arc" />
    </g>
    <text
       sodipodi:linespacing="125%"
       id="text3243"
       y="89.476288"
       x="76.090019"
       style="font-size:13.94931602px;font-style:normal;font-weight:normal;line-height:125%;letter-spacing:0px;word-spacing:0px;fill:#000000;fill-opacity:1;stroke:none;font-family:Sans"
       xml:space="preserve"
       transform="scale(1.0005987,0.99940163)"><tspan
         y="89.476288"
         x="76.090019"
         id="tspan3245"
         sodipodi:role="line">reahl-web</tspan></text>
    <path
       inkscape:connector-curvature="0"
       id="path3264"
       d="m 164.52102,76.273905 102.133,0"
       style="fill:none;stroke:#000000;stroke-width:1px;stroke-linecap:butt;stroke-linejoin:miter;stroke-opacity:1" />
    <g
       id="g4248">
      <g
         style="font-size:40px;font-style:normal;font-weight:normal;line-height:125%;letter-spacing:0px;word-spacing:0px;fill:#000000;fill-opacity:1;stroke:none;font-family:Sans"
         id="g3266"
         transform="matrix(0.53343351,0,0,0.5327953,92.442465,-79.420808)">
        <path
           d="m 348.21897,304.69944 c 0.15998,-0.0533 0.30664,-0.0533 0.44,0 0.13331,0.0267 0.19998,0.12 0.2,0.28 l 0.08,1.56 c 0.0266,0.34666 -0.16002,0.58666 -0.56,0.72 -0.88002,0.29333 -1.78669,0.50666 -2.72,0.64 -0.93335,0.13333 -2.10668,0.19999 -3.52,0.2 -4.64001,-1e-5 -8.33334,-1.41334 -11.08,-4.24 -1.36,-1.38667 -2.37334,-3 -3.04,-4.84 -0.64,-1.84 -0.96,-3.91999 -0.96,-6.24 0,-4.55999 1.37333,-8.25332 4.12,-11.08 2.79999,-2.82664 6.45332,-4.23998 10.96,-4.24 0.63998,2e-5 1.21332,0.0134 1.72,0.04 0.53332,0.0267 1.03998,0.0667 1.52,0.12 0.50665,0.0534 0.99998,0.12002 1.48,0.2 0.47998,0.08 0.98665,0.18669 1.52,0.32 0.39998,0.08 0.58664,0.33336 0.56,0.76 l -0.08,1.6 c -0.0534,0.37335 -0.25336,0.49335 -0.6,0.36 -1.04002,-0.34665 -2.02669,-0.57331 -2.96,-0.68 -0.93335,-0.13331 -1.98668,-0.19998 -3.16,-0.2 -3.76001,2e-5 -6.76001,1.20002 -9,3.6 -2.08,2.32002 -3.12,5.38668 -3.12,9.2 0,1.92001 0.25333,3.65334 0.76,5.2 0.50666,1.54667 1.27999,2.89333 2.32,4.04 2.15999,2.4 5.17332,3.58666 9.04,3.56 1.11998,-0.0267 2.22665,-0.10667 3.32,-0.24 1.11998,-0.13334 2.03998,-0.34667 2.76,-0.64"
           style="font-variant:normal;font-stretch:normal;text-align:start;writing-mode:lr-tb;text-anchor:start;font-family:NanumGothic;-inkscape-font-specification:NanumGothic"
           id="path3268"
           inkscape:connector-curvature="0" />
      </g>
      <path
         style="fill:#ffffff;stroke:#000000;stroke-width:2.34471295;stroke-miterlimit:4;stroke-dasharray:none"
         sodipodi:type="arc"
         id="path3270"
         sodipodi:cx="499.01535"
         sodipodi:cy="166.96347"
         sodipodi:rx="12.626906"
         sodipodi:ry="12.626906"
         d="m 511.64226,166.96347 a 12.626906,12.626906 0 1 1 -25.25382,0 12.626906,12.626906 0 1 1 25.25382,0 z"
         transform="matrix(0.4267468,0,0,0.42623623,62.159136,5.6462263)" />
    </g>
    <path
       style="fill:none;stroke:#000000;stroke-width:1px;stroke-linecap:butt;stroke-linejoin:miter;stroke-opacity:1"
       d="m 164.52102,94.303755 102.133,0"
       id="path3276"
       inkscape:connector-curvature="0" />
    <g
       id="g4243">
      <g
         transform="matrix(0.53343351,0,0,0.5327953,92.442465,-61.390958)"
         id="g3278"
         style="font-size:40px;font-style:normal;font-weight:normal;line-height:125%;letter-spacing:0px;word-spacing:0px;fill:#000000;fill-opacity:1;stroke:none;font-family:Sans">
        <path
           inkscape:connector-curvature="0"
           id="path3280"
           style="font-variant:normal;font-stretch:normal;text-align:start;writing-mode:lr-tb;text-anchor:start;font-family:NanumGothic;-inkscape-font-specification:NanumGothic"
           d="m 348.21897,304.69944 c 0.15998,-0.0533 0.30664,-0.0533 0.44,0 0.13331,0.0267 0.19998,0.12 0.2,0.28 l 0.08,1.56 c 0.0266,0.34666 -0.16002,0.58666 -0.56,0.72 -0.88002,0.29333 -1.78669,0.50666 -2.72,0.64 -0.93335,0.13333 -2.10668,0.19999 -3.52,0.2 -4.64001,-1e-5 -8.33334,-1.41334 -11.08,-4.24 -1.36,-1.38667 -2.37334,-3 -3.04,-4.84 -0.64,-1.84 -0.96,-3.91999 -0.96,-6.24 0,-4.55999 1.37333,-8.25332 4.12,-11.08 2.79999,-2.82664 6.45332,-4.23998 10.96,-4.24 0.63998,2e-5 1.21332,0.0134 1.72,0.04 0.53332,0.0267 1.03998,0.0667 1.52,0.12 0.50665,0.0534 0.99998,0.12002 1.48,0.2 0.47998,0.08 0.98665,0.18669 1.52,0.32 0.39998,0.08 0.58664,0.33336 0.56,0.76 l -0.08,1.6 c -0.0534,0.37335 -0.25336,0.49335 -0.6,0.36 -1.04002,-0.34665 -2.02669,-0.57331 -2.96,-0.68 -0.93335,-0.13331 -1.98668,-0.19998 -3.16,-0.2 -3.76001,2e-5 -6.76001,1.20002 -9,3.6 -2.08,2.32002 -3.12,5.38668 -3.12,9.2 0,1.92001 0.25333,3.65334 0.76,5.2 0.50666,1.54667 1.27999,2.89333 2.32,4.04 2.15999,2.4 5.17332,3.58666 9.04,3.56 1.11998,-0.0267 2.22665,-0.10667 3.32,-0.24 1.11998,-0.13334 2.03998,-0.34667 2.76,-0.64" />
      </g>
      <path
         style="fill:#ffffff;stroke:#000000;stroke-width:2.34471295;stroke-miterlimit:4;stroke-dasharray:none"
         transform="matrix(0.4267468,0,0,0.42623623,62.159136,23.676078)"
         d="m 511.64226,166.96347 a 12.626906,12.626906 0 1 1 -25.25382,0 12.626906,12.626906 0 1 1 25.25382,0 z"
         sodipodi:ry="12.626906"
         sodipodi:rx="12.626906"
         sodipodi:cy="166.96347"
         sodipodi:cx="499.01535"
         id="path3282"
         sodipodi:type="arc" />
    </g>
    <path
       inkscape:connector-curvature="0"
       id="path3288"
       d="m 164.52102,111.7954 102.133,0"
       style="fill:none;stroke:#000000;stroke-width:1px;stroke-linecap:butt;stroke-linejoin:miter;stroke-opacity:1" />
    <g
       id="g4238">
      <g
         style="font-size:40px;font-style:normal;font-weight:normal;line-height:125%;letter-spacing:0px;word-spacing:0px;fill:#000000;fill-opacity:1;stroke:none;font-family:Sans"
         id="g3290"
         transform="matrix(0.53343351,0,0,0.5327953,92.442465,-43.899313)">
        <path
           d="m 348.21897,304.69944 c 0.15998,-0.0533 0.30664,-0.0533 0.44,0 0.13331,0.0267 0.19998,0.12 0.2,0.28 l 0.08,1.56 c 0.0266,0.34666 -0.16002,0.58666 -0.56,0.72 -0.88002,0.29333 -1.78669,0.50666 -2.72,0.64 -0.93335,0.13333 -2.10668,0.19999 -3.52,0.2 -4.64001,-1e-5 -8.33334,-1.41334 -11.08,-4.24 -1.36,-1.38667 -2.37334,-3 -3.04,-4.84 -0.64,-1.84 -0.96,-3.91999 -0.96,-6.24 0,-4.55999 1.37333,-8.25332 4.12,-11.08 2.79999,-2.82664 6.45332,-4.23998 10.96,-4.24 0.63998,2e-5 1.21332,0.0134 1.72,0.04 0.53332,0.0267 1.03998,0.0667 1.52,0.12 0.50665,0.0534 0.99998,0.12002 1.48,0.2 0.47998,0.08 0.98665,0.18669 1.52,0.32 0.39998,0.08 0.58664,0.33336 0.56,0.76 l -0.08,1.6 c -0.0534,0.37335 -0.25336,0.49335 -0.6,0.36 -1.04002,-0.34665 -2.02669,-0.57331 -2.96,-0.68 -0.93335,-0.13331 -1.98668,-0.19998 -3.16,-0.2 -3.76001,2e-5 -6.76001,1.20002 -9,3.6 -2.08,2.32002 -3.12,5.38668 -3.12,9.2 0,1.92001 0.25333,3.65334 0.76,5.2 0.50666,1.54667 1.27999,2.89333 2.32,4.04 2.15999,2.4 5.17332,3.58666 9.04,3.56 1.11998,-0.0267 2.22665,-0.10667 3.32,-0.24 1.11998,-0.13334 2.03998,-0.34667 2.76,-0.64"
           style="font-variant:normal;font-stretch:normal;text-align:start;writing-mode:lr-tb;text-anchor:start;font-family:NanumGothic;-inkscape-font-specification:NanumGothic"
           id="path3292"
           inkscape:connector-curvature="0" />
      </g>
      <path
         style="fill:#ffffff;stroke:#000000;stroke-width:2.34471295;stroke-miterlimit:4;stroke-dasharray:none"
         sodipodi:type="arc"
         id="path3294"
         sodipodi:cx="499.01535"
         sodipodi:cy="166.96347"
         sodipodi:rx="12.626906"
         sodipodi:ry="12.626906"
         d="m 511.64226,166.96347 a 12.626906,12.626906 0 1 1 -25.25382,0 12.626906,12.626906 0 1 1 25.25382,0 z"
         transform="matrix(0.4267468,0,0,0.42623623,62.159136,41.167722)" />
    </g>
    <rect
       style="color:#000000;fill:#816647;fill-opacity:1;fill-rule:evenodd;stroke:#000000;stroke-width:0.48065677;stroke-linecap:butt;stroke-linejoin:miter;stroke-miterlimit:4;stroke-opacity:0.98654713;stroke-dasharray:none;stroke-dashoffset:0;marker:none;visibility:visible;display:inline;overflow:visible;enable-background:accumulate"
       id="rect3296"
       width="160.55463"
       height="66.501587"
       x="383.14459"
       y="47.174847" />
    <text
       xml:space="preserve"
       style="font-size:13.94931602px;font-style:normal;font-weight:normal;line-height:125%;letter-spacing:0px;word-spacing:0px;fill:#000000;fill-opacity:1;stroke:none;font-family:Sans"
       x="392.1449"
       y="85.674118"
       id="text3298"
       sodipodi:linespacing="125%"
       transform="scale(1.0005987,0.99940163)"><tspan
         sodipodi:role="line"
         id="tspan3300"
         x="392.1449"
         y="85.674118">reahl-web-elixir-impl</tspan></text>
    <text
       xml:space="preserve"
       style="font-size:7.34066439px;font-style:normal;font-weight:normal;line-height:125%;letter-spacing:0px;word-spacing:0px;fill:#000000;fill-opacity:1;stroke:none;font-family:Sans"
       x="191.99347"
       y="54.981647"
       id="text3302"
       sodipodi:linespacing="125%"
       transform="scale(1.0005987,0.99940163)"><tspan
         sodipodi:role="line"
         id="tspan3304"
         x="191.99347"
         y="54.981647">session_class</tspan></text>
    <text
       sodipodi:linespacing="125%"
       id="text3306"
       y="72.144226"
       x="167.34238"
       style="font-size:7.34066439px;font-style:normal;font-weight:normal;line-height:125%;letter-spacing:0px;word-spacing:0px;fill:#000000;fill-opacity:1;stroke:none;font-family:Sans"
       xml:space="preserve"
       transform="scale(1.0005987,0.99940163)"><tspan
         y="72.144226"
         x="167.34238"
         id="tspan3308"
         sodipodi:role="line">persisted_user_input_class</tspan></text>
    <text
       xml:space="preserve"
       style="font-size:7.34066439px;font-style:normal;font-weight:normal;line-height:125%;letter-spacing:0px;word-spacing:0px;fill:#000000;fill-opacity:1;stroke:none;font-family:Sans"
       x="168.69724"
       y="89.37709"
       id="text3310"
       sodipodi:linespacing="125%"
       transform="scale(1.0005987,0.99940163)"><tspan
         sodipodi:role="line"
         id="tspan3312"
         x="168.69724"
         y="89.37709">persisted_exception_class</tspan></text>
    <text
       sodipodi:linespacing="125%"
       id="text3314"
       y="106.60994"
       x="181.04877"
       style="font-size:7.34066439px;font-style:normal;font-weight:normal;line-height:125%;letter-spacing:0px;word-spacing:0px;fill:#000000;fill-opacity:1;stroke:none;font-family:Sans"
       xml:space="preserve"
       transform="scale(1.0005987,0.99940163)"><tspan
         y="106.60994"
         x="181.04877"
         id="tspan3316"
         sodipodi:role="line">persisted_file_class</tspan></text>
    <text
       sodipodi:linespacing="125%"
       id="text3374"
       y="54.981647"
       x="301.89465"
       style="font-size:7.34066439px;font-style:normal;font-weight:normal;line-height:125%;letter-spacing:0px;word-spacing:0px;fill:#000000;fill-opacity:1;stroke:none;font-family:Sans"
       xml:space="preserve"
       transform="scale(1.0005987,0.99940163)"><tspan
         y="54.981647"
         x="301.89465"
         id="tspan3376"
         sodipodi:role="line">WebUserSession</tspan></text>
    <text
       xml:space="preserve"
       style="font-size:7.34066439px;font-style:normal;font-weight:normal;line-height:125%;letter-spacing:0px;word-spacing:0px;fill:#000000;fill-opacity:1;stroke:none;font-family:Sans"
       x="313.96661"
       y="72.185562"
       id="text3378"
       sodipodi:linespacing="125%"
       transform="scale(1.0005987,0.99940163)"><tspan
         sodipodi:role="line"
         id="tspan3380"
         x="313.96661"
         y="72.185562">UserInput</tspan></text>
    <text
       sodipodi:linespacing="125%"
       id="text3382"
       y="89.618866"
       x="297.23325"
       style="font-size:7.34066439px;font-style:normal;font-weight:normal;line-height:125%;letter-spacing:0px;word-spacing:0px;fill:#000000;fill-opacity:1;stroke:none;font-family:Sans"
       xml:space="preserve"
       transform="scale(1.0005987,0.99940163)"><tspan
         y="89.618866"
         x="297.23325"
         id="tspan3384"
         sodipodi:role="line">PersistedException</tspan></text>
    <text
       xml:space="preserve"
       style="font-size:7.34066439px;font-style:normal;font-weight:normal;line-height:125%;letter-spacing:0px;word-spacing:0px;fill:#000000;fill-opacity:1;stroke:none;font-family:Sans"
       x="309.04175"
       y="107.28154"
       id="text3386"
       sodipodi:linespacing="125%"
       transform="scale(1.0005987,0.99940163)"><tspan
         sodipodi:role="line"
         id="tspan3388"
         x="309.04175"
         y="107.28154">PersistedFile</tspan></text>
    <path
       inkscape:connector-curvature="0"
       id="path3394"
       d="m 280.43006,57.974955 102.13301,0"
       style="fill:none;stroke:#000000;stroke-width:1px;stroke-linecap:butt;stroke-linejoin:miter;stroke-opacity:1" />
    <path
       style="fill:none;stroke:#000000;stroke-width:1px;stroke-linecap:butt;stroke-linejoin:miter;stroke-opacity:1"
       d="m 280.65959,76.273905 102.133,0"
       id="path3396"
       inkscape:connector-curvature="0" />
    <path
       inkscape:connector-curvature="0"
       id="path3398"
       d="m 280.65959,94.303755 102.133,0"
       style="fill:none;stroke:#000000;stroke-width:1px;stroke-linecap:butt;stroke-linejoin:miter;stroke-opacity:1" />
    <path
       style="fill:none;stroke:#000000;stroke-width:1px;stroke-linecap:butt;stroke-linejoin:miter;stroke-opacity:1"
       d="m 280.88911,111.7954 102.13301,0"
       id="path3400"
       inkscape:connector-curvature="0" />
    <rect
       style="color:#000000;fill:#816647;fill-opacity:1;fill-rule:evenodd;stroke:#000000;stroke-width:0.48065677;stroke-linecap:butt;stroke-linejoin:miter;stroke-miterlimit:4;stroke-opacity:0.98654713;stroke-dasharray:none;stroke-dashoffset:0;marker:none;visibility:visible;display:inline;overflow:visible;enable-background:accumulate"
       id="rect3402"
       width="114.35173"
       height="66.501587"
       x="407.67068"
       y="181.72635" />
    <text
       xml:space="preserve"
       style="font-size:13.94931602px;font-style:normal;font-weight:normal;line-height:125%;letter-spacing:0px;word-spacing:0px;fill:#000000;fill-opacity:1;stroke:none;font-family:Sans"
       x="419.85498"
       y="220.30618"
       id="text3404"
       sodipodi:linespacing="125%"
       transform="scale(1.0005987,0.99940163)"><tspan
         sodipodi:role="line"
         id="tspan3406"
         x="419.85498"
         y="220.30618">reahl-domain</tspan></text>
    <path
       style="fill:none;stroke:#000000;stroke-width:1;stroke-linecap:butt;stroke-linejoin:miter;stroke-opacity:1;stroke-miterlimit:4;stroke-dasharray:8,8;stroke-dashoffset:0"
       d="m 461.09065,113.62227 0,68.05049"
       id="path3410"
       inkscape:connector-curvature="0" />
    <path
       style="fill:none;stroke:#000000;stroke-width:1px;stroke-linecap:butt;stroke-linejoin:miter;stroke-opacity:1"
       d="m 446.10807,166.71334 14.87184,14.85404 15.14408,-15.12597"
       id="path3425"
       inkscape:connector-curvature="0" />
    <g
       id="g3431"
       transform="matrix(0.53343351,0,0,0.5327953,-17.879457,-17.904577)">
      <rect
         y="139.35367"
         x="310.77313"
         height="26.263653"
         width="20.228096"
         id="rect3417"
         style="color:#000000;fill:#816647;fill-opacity:1;fill-rule:evenodd;stroke:#000000;stroke-width:0.90160167;stroke-linecap:butt;stroke-linejoin:miter;stroke-miterlimit:4;stroke-opacity:0.98654713;stroke-dasharray:none;stroke-dashoffset:0;marker:none;visibility:visible;display:inline;overflow:visible;enable-background:accumulate" />
      <rect
         style="color:#000000;fill:#816647;fill-opacity:1;fill-rule:evenodd;stroke:#000000;stroke-width:0.90160161;stroke-linecap:butt;stroke-linejoin:miter;stroke-miterlimit:4;stroke-opacity:0.98654713;stroke-dasharray:none;stroke-dashoffset:0;marker:none;visibility:visible;display:inline;overflow:visible;enable-background:accumulate"
         id="rect3427"
         width="12.108017"
         height="9.3919344"
         x="304.90863"
         y="142.42125" />
      <rect
         y="153.51869"
         x="304.90863"
         height="9.3919344"
         width="12.108017"
         id="rect3429"
         style="color:#000000;fill:#816647;fill-opacity:1;fill-rule:evenodd;stroke:#000000;stroke-width:0.90160161;stroke-linecap:butt;stroke-linejoin:miter;stroke-miterlimit:4;stroke-opacity:0.98654713;stroke-dasharray:none;stroke-dashoffset:0;marker:none;visibility:visible;display:inline;overflow:visible;enable-background:accumulate" />
    </g>
    <g
       id="g3436"
       transform="matrix(0.53343351,0,0,0.5327953,361.75439,-21.365649)">
      <rect
         style="color:#000000;fill:#816647;fill-opacity:1;fill-rule:evenodd;stroke:#000000;stroke-width:0.90160167;stroke-linecap:butt;stroke-linejoin:miter;stroke-miterlimit:4;stroke-opacity:0.98654713;stroke-dasharray:none;stroke-dashoffset:0;marker:none;visibility:visible;display:inline;overflow:visible;enable-background:accumulate"
         id="rect3438"
         width="20.228096"
         height="26.263653"
         x="310.77313"
         y="139.35367" />
      <rect
         y="142.42125"
         x="304.90863"
         height="9.3919344"
         width="12.108017"
         id="rect3440"
         style="color:#000000;fill:#816647;fill-opacity:1;fill-rule:evenodd;stroke:#000000;stroke-width:0.90160161;stroke-linecap:butt;stroke-linejoin:miter;stroke-miterlimit:4;stroke-opacity:0.98654713;stroke-dasharray:none;stroke-dashoffset:0;marker:none;visibility:visible;display:inline;overflow:visible;enable-background:accumulate" />
      <rect
         style="color:#000000;fill:#816647;fill-opacity:1;fill-rule:evenodd;stroke:#000000;stroke-width:0.90160161;stroke-linecap:butt;stroke-linejoin:miter;stroke-miterlimit:4;stroke-opacity:0.98654713;stroke-dasharray:none;stroke-dashoffset:0;marker:none;visibility:visible;display:inline;overflow:visible;enable-background:accumulate"
         id="rect3442"
         width="12.108017"
         height="9.3919344"
         x="304.90863"
         y="153.51869" />
    </g>
    <g
       transform="matrix(0.53343351,0,0,0.5327953,341.34811,111.69332)"
       id="g3444">
      <rect
         y="139.35367"
         x="310.77313"
         height="26.263653"
         width="20.228096"
         id="rect3446"
         style="color:#000000;fill:#816647;fill-opacity:1;fill-rule:evenodd;stroke:#000000;stroke-width:0.90160167;stroke-linecap:butt;stroke-linejoin:miter;stroke-miterlimit:4;stroke-opacity:0.98654713;stroke-dasharray:none;stroke-dashoffset:0;marker:none;visibility:visible;display:inline;overflow:visible;enable-background:accumulate" />
      <rect
         style="color:#000000;fill:#816647;fill-opacity:1;fill-rule:evenodd;stroke:#000000;stroke-width:0.90160161;stroke-linecap:butt;stroke-linejoin:miter;stroke-miterlimit:4;stroke-opacity:0.98654713;stroke-dasharray:none;stroke-dashoffset:0;marker:none;visibility:visible;display:inline;overflow:visible;enable-background:accumulate"
         id="rect3448"
         width="12.108017"
         height="9.3919344"
         x="304.90863"
         y="142.42125" />
      <rect
         y="153.51869"
         x="304.90863"
         height="9.3919344"
         width="12.108017"
         id="rect3450"
         style="color:#000000;fill:#816647;fill-opacity:1;fill-rule:evenodd;stroke:#000000;stroke-width:0.90160161;stroke-linecap:butt;stroke-linejoin:miter;stroke-miterlimit:4;stroke-opacity:0.98654713;stroke-dasharray:none;stroke-dashoffset:0;marker:none;visibility:visible;display:inline;overflow:visible;enable-background:accumulate" />
    </g>
  </g>
</svg>
