<?xml version="1.0" encoding="UTF-8" standalone="no"?>
<!-- Created with Inkscape (http://www.inkscape.org/) -->

<svg
   xmlns:dc="http://purl.org/dc/elements/1.1/"
   xmlns:cc="http://creativecommons.org/ns#"
   xmlns:rdf="http://www.w3.org/1999/02/22-rdf-syntax-ns#"
   xmlns:svg="http://www.w3.org/2000/svg"
   xmlns="http://www.w3.org/2000/svg"
   xmlns:sodipodi="http://sodipodi.sourceforge.net/DTD/sodipodi-0.dtd"
   xmlns:inkscape="http://www.inkscape.org/namespaces/inkscape"
   version="1.2"
   width="512.1803"
   height="356.73245"
   id="svg2"
   inkscape:version="0.91 r13725"
   sodipodi:docname="inputs.svg"
   inkscape:export-xdpi="90"
   inkscape:export-ydpi="90">
  <sodipodi:namedview
     pagecolor="#ffffff"
     bordercolor="#666666"
     borderopacity="1"
     objecttolerance="10"
     gridtolerance="10"
     guidetolerance="10"
     inkscape:pageopacity="0"
     inkscape:pageshadow="2"
     inkscape:window-width="1527"
     inkscape:window-height="772"
     id="namedview227"
     showgrid="false"
     inkscape:zoom="0.89846155"
     inkscape:cx="407.26017"
     inkscape:cy="88.936897"
     inkscape:window-x="1887"
     inkscape:window-y="157"
     inkscape:window-maximized="0"
     inkscape:current-layer="svg2"
     fit-margin-top="1"
     fit-margin-left="1"
     fit-margin-right="1"
     fit-margin-bottom="1"
     units="cm" />
  <defs
     id="defs4">
    <marker
       inkscape:stockid="Arrow1Lend"
       orient="auto"
       refY="0"
       refX="0"
       id="Arrow1Lend"
       style="overflow:visible">
      <path
         id="path4580"
         d="M 0,0 5,-5 -12.5,0 5,5 0,0 z"
         style="fill-rule:evenodd;stroke:#000000;stroke-width:1pt"
         transform="matrix(-0.8,0,0,-0.8,-10,0)"
         inkscape:connector-curvature="0" />
    </marker>
    <inkscape:path-effect
       effect="skeletal"
       id="path-effect4571"
       is_visible="true"
       pattern="M 0,5 10,10 10,0 z"
       copytype="single_stretched"
       prop_scale="1"
       scale_y_rel="false"
       spacing="0"
       normal_offset="0"
       tang_offset="0"
       prop_units="false"
       vertical_pattern="false"
       fuse_tolerance="0" />
    <marker
       inkscape:stockid="Arrow1Lend"
       orient="auto"
       refY="0"
       refX="0"
       id="Arrow1Lend-9"
       style="overflow:visible">
      <path
         inkscape:connector-curvature="0"
         id="path4580-7"
         d="M 0,0 5,-5 -12.5,0 5,5 0,0 z"
         style="fill-rule:evenodd;stroke:#000000;stroke-width:1pt"
         transform="matrix(-0.8,0,0,-0.8,-10,0)" />
    </marker>
  </defs>
  <metadata
     id="metadata7">
    <rdf:RDF>
      <cc:Work
         rdf:about="">
        <dc:format>image/svg+xml</dc:format>
        <dc:type
           rdf:resource="http://purl.org/dc/dcmitype/StillImage" />
        <dc:title />
      </cc:Work>
    </rdf:RDF>
  </metadata>
  <flowRoot
     style="font-size:10px;font-style:normal;font-variant:normal;font-weight:normal;font-stretch:normal;line-height:125%;letter-spacing:0px;word-spacing:0px;fill:#000000;fill-opacity:1;stroke:none;font-family:AlHor;-inkscape-font-specification:AlHor"
     xml:space="preserve"
     id="flowRoot2995"
     transform="translate(-381.10212,199.38922)"><flowRegion
       id="flowRegion2997"><rect
         style="font-size:10px"
         id="rect2999"
         y="141.36218"
         x="210"
         height="45"
         width="259" /></flowRegion><flowPara
       id="flowPara3001" /></flowRoot>  <flowRoot
     xml:space="preserve"
     id="flowRoot3871"
     style="font-size:11px;font-style:normal;font-variant:normal;font-weight:normal;font-stretch:normal;line-height:125%;letter-spacing:0px;word-spacing:0px;fill:#000000;fill-opacity:1;stroke:none;font-family:Arial;-inkscape-font-specification:Arial"
     transform="translate(-43.546751,-290.40977)"><flowRegion
       id="flowRegion3873"><rect
         id="rect3875"
         width="88.146187"
         height="37.776936"
         x="437.58286"
         y="463.91553"
         style="font-size:11px" /></flowRegion><flowPara
       id="flowPara3877" /></flowRoot>  <g
     style="font-style:normal;font-variant:normal;font-weight:normal;font-stretch:normal;font-size:16px;line-height:125%;font-family:AlHor;-inkscape-font-specification:AlHor;letter-spacing:0px;word-spacing:0px;fill:#000000;fill-opacity:1;stroke:none"
     id="flowRoot2987-2"
     transform="translate(-187.75353,-55.294406)">
    <path
       inkscape:connector-curvature="0"
       style="font-size:18px"
       id="path3227-8"
       d="m 212.15234,94.943438 -2.4082,6.530272 4.8252,0 -2.417,-6.530272 m -1.00195,-1.749023 2.0127,0 5.00097,13.122065 -1.8457,0 -1.19531,-3.36621 -5.91504,0 -1.19531,3.36621 -1.87208,0 5.00977,-13.122065" />
    <path
       inkscape:connector-curvature="0"
       style="font-size:18px"
       id="path3229-9"
       d="m 226.16211,97.966876 0,-5.326172 1.61719,0 0,13.675776 -1.61719,0 0,-1.47656 c -0.33985,0.58594 -0.77052,1.02246 -1.29199,1.30957 -0.51563,0.28125 -1.13673,0.42188 -1.86328,0.42188 -1.18946,0 -2.15919,-0.47461 -2.90918,-1.42383 -0.74415,-0.94922 -1.11622,-2.19726 -1.11621,-3.74414 -1e-5,-1.54687 0.37206,-2.794915 1.11621,-3.744142 0.74999,-0.949209 1.71972,-1.423818 2.90918,-1.423828 0.72655,1e-5 1.34765,0.143565 1.86328,0.430664 0.52147,0.28126 0.95214,0.714853 1.29199,1.300782 m -5.51074,3.436524 c -10e-6,1.18946 0.24316,2.12403 0.72949,2.80371 0.49218,0.67383 1.16601,1.01074 2.02148,1.01074 0.85547,0 1.52929,-0.33691 2.02149,-1.01074 0.49218,-0.67968 0.73827,-1.61425 0.73828,-2.80371 -1e-5,-1.18945 -0.2461,-2.121088 -0.73828,-2.794923 -0.4922,-0.679679 -1.16602,-1.019522 -2.02149,-1.019531 -0.85547,9e-6 -1.5293,0.339852 -2.02148,1.019531 -0.48633,0.673835 -0.7295,1.605473 -0.72949,2.794923" />
    <path
       inkscape:connector-curvature="0"
       style="font-size:18px"
       id="path3231-7"
       d="m 237.58789,97.966876 0,-5.326172 1.61719,0 0,13.675776 -1.61719,0 0,-1.47656 c -0.33985,0.58594 -0.77051,1.02246 -1.29199,1.30957 -0.51563,0.28125 -1.13673,0.42188 -1.86328,0.42188 -1.18946,0 -2.15919,-0.47461 -2.90918,-1.42383 -0.74414,-0.94922 -1.11621,-2.19726 -1.11621,-3.74414 0,-1.54687 0.37207,-2.794915 1.11621,-3.744142 0.74999,-0.949209 1.71972,-1.423818 2.90918,-1.423828 0.72655,1e-5 1.34765,0.143565 1.86328,0.430664 0.52148,0.28126 0.95214,0.714853 1.29199,1.300782 m -5.51074,3.436524 c 0,1.18946 0.24316,2.12403 0.72949,2.80371 0.49218,0.67383 1.16601,1.01074 2.02148,1.01074 0.85547,0 1.52929,-0.33691 2.02149,-1.01074 0.49218,-0.67968 0.73827,-1.61425 0.73828,-2.80371 -10e-6,-1.18945 -0.2461,-2.121088 -0.73828,-2.794923 -0.4922,-0.679679 -1.16602,-1.019522 -2.02149,-1.019531 -0.85547,9e-6 -1.5293,0.339852 -2.02148,1.019531 -0.48633,0.673835 -0.72949,1.605473 -0.72949,2.794923" />
    <path
       inkscape:connector-curvature="0"
       style="font-size:18px"
       id="path3233-3"
       d="m 248.24023,97.984454 c -0.18164,-0.105461 -0.38086,-0.181632 -0.59765,-0.228516 -0.21095,-0.05273 -0.44532,-0.07909 -0.70313,-0.0791 -0.91406,9e-6 -1.61719,0.298837 -2.10937,0.896485 -0.48633,0.591804 -0.7295,1.444337 -0.72949,2.557617 l 0,5.18554 -1.62598,0 0,-9.843743 1.62598,0 0,1.529297 c 0.33984,-0.597648 0.78222,-1.04003 1.32714,-1.327149 0.54492,-0.292958 1.20703,-0.439443 1.98633,-0.439453 0.11132,1e-5 0.23437,0.0088 0.36914,0.02637 0.13476,0.01173 0.28418,0.03224 0.44825,0.06152 l 0.009,1.661133" />
    <path
       inkscape:connector-curvature="0"
       style="font-size:18px"
       id="path3235-6"
       d="m 257.9873,100.99031 0,0.79102 -7.43554,0 c 0.0703,1.11328 0.40429,1.96289 1.00195,2.54883 0.60351,0.58008 1.4414,0.87012 2.51367,0.87011 0.62109,1e-5 1.22168,-0.0762 1.80176,-0.22851 0.58593,-0.15234 1.16601,-0.38086 1.74023,-0.68555 l 0,1.5293 c -0.58008,0.24609 -1.17481,0.43359 -1.78417,0.5625 -0.60939,0.1289 -1.22755,0.19336 -1.8545,0.19336 -1.57031,0 -2.81543,-0.45703 -3.73535,-1.3711 -0.91406,-0.91406 -1.37109,-2.15038 -1.37109,-3.70898 0,-1.611322 0.43359,-2.888665 1.30078,-3.832032 0.87304,-0.949209 2.04785,-1.423818 3.52441,-1.423828 1.32421,1e-5 2.37011,0.427744 3.1377,1.283203 0.77343,0.849618 1.16014,2.006843 1.16015,3.471677 m -1.61718,-0.47461 c -0.0117,-0.884755 -0.26075,-1.590809 -0.74707,-2.11816 -0.48048,-0.527336 -1.11915,-0.791007 -1.91602,-0.791016 -0.90235,9e-6 -1.62598,0.254891 -2.1709,0.764648 -0.53906,0.509773 -0.84961,1.227546 -0.93164,2.153318 l 5.76563,-0.009" />
    <path
       inkscape:connector-curvature="0"
       style="font-size:18px"
       id="path3237-1"
       d="m 266.91699,96.762774 0,1.529297 c -0.45704,-0.234367 -0.93165,-0.410148 -1.42383,-0.527344 -0.49219,-0.117179 -1.00195,-0.175772 -1.52929,-0.175781 -0.80274,9e-6 -1.40626,0.123055 -1.81055,0.36914 -0.39844,0.246102 -0.59766,0.615243 -0.59766,1.107422 0,0.375007 0.14356,0.670905 0.43067,0.887696 0.2871,0.210946 0.86425,0.413096 1.73144,0.606446 l 0.55371,0.12305 c 1.14844,0.24609 1.96289,0.59473 2.44336,1.04589 0.48632,0.44532 0.72949,1.06934 0.7295,1.87207 -1e-5,0.91407 -0.36329,1.6377 -1.08985,2.1709 -0.72071,0.53321 -1.71387,0.79981 -2.97949,0.79981 -0.52735,0 -1.07813,-0.0527 -1.65234,-0.15821 -0.56837,-0.0996 -1.16895,-0.25195 -1.80176,-0.45703 l 0,-1.66992 c 0.59765,0.31055 1.18652,0.54492 1.7666,0.70313 0.58007,0.15234 1.15429,0.22851 1.72266,0.22851 0.76171,0 1.34765,-0.1289 1.75781,-0.38672 0.41015,-0.26367 0.61523,-0.63281 0.61523,-1.10742 0,-0.43945 -0.14942,-0.77636 -0.44824,-1.01074 -0.29297,-0.23437 -0.94043,-0.45996 -1.94238,-0.67676 l -0.5625,-0.13183 c -1.00196,-0.21094 -1.72559,-0.5332 -2.1709,-0.9668 -0.44531,-0.43945 -0.66797,-1.040034 -0.66797,-1.801759 0,-0.925773 0.32812,-1.640616 0.98438,-2.144531 0.65624,-0.503897 1.58788,-0.75585 2.79492,-0.75586 0.59765,1e-5 1.16015,0.04396 1.6875,0.131836 0.52733,0.0879 1.01366,0.219736 1.45898,0.395508" />
    <path
       inkscape:connector-curvature="0"
       style="font-size:18px"
       id="path3239-2"
       d="m 276.30371,96.762774 0,1.529297 c -0.45704,-0.234367 -0.93165,-0.410148 -1.42383,-0.527344 -0.49219,-0.117179 -1.00196,-0.175772 -1.52929,-0.175781 -0.80274,9e-6 -1.40626,0.123055 -1.81055,0.36914 -0.39844,0.246102 -0.59766,0.615243 -0.59766,1.107422 0,0.375007 0.14355,0.670905 0.43067,0.887696 0.2871,0.210946 0.86425,0.413096 1.73144,0.606446 l 0.55371,0.12305 c 1.14843,0.24609 1.96289,0.59473 2.44336,1.04589 0.48632,0.44532 0.72949,1.06934 0.72949,1.87207 0,0.91407 -0.36328,1.6377 -1.08984,2.1709 -0.72071,0.53321 -1.71387,0.79981 -2.97949,0.79981 -0.52735,0 -1.07813,-0.0527 -1.65235,-0.15821 -0.56836,-0.0996 -1.16894,-0.25195 -1.80175,-0.45703 l 0,-1.66992 c 0.59765,0.31055 1.18652,0.54492 1.7666,0.70313 0.58007,0.15234 1.15429,0.22851 1.72265,0.22851 0.76172,0 1.34766,-0.1289 1.75782,-0.38672 0.41015,-0.26367 0.61523,-0.63281 0.61523,-1.10742 0,-0.43945 -0.14942,-0.77636 -0.44824,-1.01074 -0.29298,-0.23437 -0.94044,-0.45996 -1.94238,-0.67676 l -0.5625,-0.13183 c -1.00196,-0.21094 -1.72559,-0.5332 -2.1709,-0.9668 -0.44532,-0.43945 -0.66797,-1.040034 -0.66797,-1.801759 0,-0.925773 0.32812,-1.640616 0.98437,-2.144531 0.65625,-0.503897 1.58789,-0.75585 2.79493,-0.75586 0.59765,1e-5 1.16015,0.04396 1.6875,0.131836 0.52733,0.0879 1.01366,0.219736 1.45898,0.395508" />
    <path
       inkscape:connector-curvature="0"
       style="font-size:18px"
       id="path3241-9"
       d="m 287.83496,100.99031 0,0.79102 -7.43555,0 c 0.0703,1.11328 0.4043,1.96289 1.00196,2.54883 0.60351,0.58008 1.4414,0.87012 2.51367,0.87011 0.62109,1e-5 1.22167,-0.0762 1.80176,-0.22851 0.58593,-0.15234 1.166,-0.38086 1.74023,-0.68555 l 0,1.5293 c -0.58009,0.24609 -1.17481,0.43359 -1.78418,0.5625 -0.60938,0.1289 -1.22754,0.19336 -1.85449,0.19336 -1.57032,0 -2.81543,-0.45703 -3.73535,-1.3711 -0.91407,-0.91406 -1.3711,-2.15038 -1.3711,-3.70898 0,-1.611322 0.4336,-2.888665 1.30079,-3.832032 0.87304,-0.949209 2.04784,-1.423818 3.52441,-1.423828 1.32421,1e-5 2.37011,0.427744 3.13769,1.283203 0.77343,0.849618 1.16015,2.006843 1.16016,3.471677 m -1.61719,-0.47461 c -0.0117,-0.884755 -0.26075,-1.590809 -0.74707,-2.11816 -0.48047,-0.527336 -1.11914,-0.791007 -1.91601,-0.791016 -0.90235,9e-6 -1.62598,0.254891 -2.1709,0.764648 -0.53907,0.509773 -0.84961,1.227546 -0.93164,2.153318 l 5.76562,-0.009" />
    <path
       inkscape:connector-curvature="0"
       style="font-size:18px"
       id="path3243-3"
       d="m 296.76465,96.762774 0,1.529297 c -0.45704,-0.234367 -0.93165,-0.410148 -1.42383,-0.527344 -0.49219,-0.117179 -1.00196,-0.175772 -1.5293,-0.175781 -0.80274,9e-6 -1.40625,0.123055 -1.81054,0.36914 -0.39844,0.246102 -0.59766,0.615243 -0.59766,1.107422 0,0.375007 0.14355,0.670905 0.43066,0.887696 0.28711,0.210946 0.86426,0.413096 1.73145,0.606446 l 0.55371,0.12305 c 1.14843,0.24609 1.96288,0.59473 2.44336,1.04589 0.48632,0.44532 0.72948,1.06934 0.72949,1.87207 -10e-6,0.91407 -0.36329,1.6377 -1.08984,2.1709 -0.72071,0.53321 -1.71387,0.79981 -2.97949,0.79981 -0.52735,0 -1.07813,-0.0527 -1.65235,-0.15821 -0.56836,-0.0996 -1.16894,-0.25195 -1.80176,-0.45703 l 0,-1.66992 c 0.59766,0.31055 1.18653,0.54492 1.76661,0.70313 0.58007,0.15234 1.15429,0.22851 1.72265,0.22851 0.76172,0 1.34765,-0.1289 1.75781,-0.38672 0.41015,-0.26367 0.61523,-0.63281 0.61524,-1.10742 -10e-6,-0.43945 -0.14942,-0.77636 -0.44824,-1.01074 -0.29298,-0.23437 -0.94044,-0.45996 -1.94239,-0.67676 l -0.5625,-0.13183 c -1.00195,-0.21094 -1.72558,-0.5332 -2.17089,-0.9668 -0.44532,-0.43945 -0.66797,-1.040034 -0.66797,-1.801759 0,-0.925773 0.32812,-1.640616 0.98437,-2.144531 0.65625,-0.503897 1.58789,-0.75585 2.79492,-0.75586 0.59765,1e-5 1.16015,0.04396 1.6875,0.131836 0.52734,0.0879 1.01367,0.219736 1.45899,0.395508" />
  </g>
  <g
     style="font-style:normal;font-variant:normal;font-weight:normal;font-stretch:normal;font-size:16px;line-height:125%;font-family:AlHor;-inkscape-font-specification:AlHor;letter-spacing:0px;word-spacing:0px;fill:#000000;fill-opacity:1;stroke:none"
     id="flowRoot3013-1"
     transform="translate(-182.73791,-157.53585)">
    <path
       inkscape:connector-curvature="0"
       id="path3171-9"
       d="m 206.46875,233.21361 -2.14063,5.80469 4.28907,0 -2.14844,-5.80469 m -0.89063,-1.55469 1.78907,0 4.44531,11.66407 -1.64063,0 -1.0625,-2.99219 -5.25781,0 -1.0625,2.99219 -1.66406,0 4.45312,-11.66407" />
    <path
       inkscape:connector-curvature="0"
       id="path3173-4"
       d="m 218.92187,235.90111 0,-4.73437 1.4375,0 0,12.15625 -1.4375,0 0,-1.3125 c -0.30209,0.52083 -0.6849,0.90885 -1.14843,1.16406 -0.45834,0.25 -1.01042,0.375 -1.65625,0.375 -1.0573,0 -1.91928,-0.42188 -2.58594,-1.26563 -0.66146,-0.84374 -0.99219,-1.95312 -0.99219,-3.32812 0,-1.375 0.33073,-2.48437 0.99219,-3.32813 0.66666,-0.84374 1.52864,-1.26561 2.58594,-1.26562 0.64583,1e-5 1.19791,0.12761 1.65625,0.38281 0.46353,0.25001 0.84634,0.63543 1.14843,1.15625 m -4.89843,3.05469 c 0,1.05729 0.21614,1.88802 0.64843,2.49219 0.4375,0.59896 1.03646,0.89844 1.79688,0.89843 0.76041,1e-5 1.35937,-0.29947 1.79687,-0.89843 0.4375,-0.60417 0.65625,-1.4349 0.65625,-2.49219 0,-1.05729 -0.21875,-1.88541 -0.65625,-2.48438 -0.4375,-0.60416 -1.03646,-0.90624 -1.79687,-0.90625 -0.76042,1e-5 -1.35938,0.30209 -1.79688,0.90625 -0.43229,0.59897 -0.64843,1.42709 -0.64843,2.48438" />
    <path
       inkscape:connector-curvature="0"
       id="path3175-7"
       d="m 229.07812,235.90111 0,-4.73437 1.4375,0 0,12.15625 -1.4375,0 0,-1.3125 c -0.30209,0.52083 -0.6849,0.90885 -1.14843,1.16406 -0.45834,0.25 -1.01042,0.375 -1.65625,0.375 -1.0573,0 -1.91928,-0.42188 -2.58594,-1.26563 -0.66146,-0.84374 -0.99219,-1.95312 -0.99219,-3.32812 0,-1.375 0.33073,-2.48437 0.99219,-3.32813 0.66666,-0.84374 1.52864,-1.26561 2.58594,-1.26562 0.64583,1e-5 1.19791,0.12761 1.65625,0.38281 0.46353,0.25001 0.84634,0.63543 1.14843,1.15625 m -4.89843,3.05469 c 0,1.05729 0.21614,1.88802 0.64843,2.49219 0.4375,0.59896 1.03646,0.89844 1.79688,0.89843 0.76041,1e-5 1.35937,-0.29947 1.79687,-0.89843 0.4375,-0.60417 0.65625,-1.4349 0.65625,-2.49219 0,-1.05729 -0.21875,-1.88541 -0.65625,-2.48438 -0.4375,-0.60416 -1.03646,-0.90624 -1.79687,-0.90625 -0.76042,1e-5 -1.35938,0.30209 -1.79688,0.90625 -0.43229,0.59897 -0.64843,1.42709 -0.64843,2.48438" />
    <path
       inkscape:connector-curvature="0"
       id="path3177-8"
       d="m 242.54687,238.92455 c -1.16146,0 -1.96614,0.13282 -2.41406,0.39844 -0.44792,0.26563 -0.67187,0.71875 -0.67187,1.35937 0,0.51042 0.16666,0.91667 0.5,1.21875 0.33854,0.29688 0.79687,0.44532 1.375,0.44531 0.79687,1e-5 1.43489,-0.28124 1.91406,-0.84375 0.48437,-0.5677 0.72656,-1.32031 0.72656,-2.25781 l 0,-0.32031 -1.42969,0 m 2.86719,-0.59375 0,4.99219 -1.4375,0 0,-1.32813 c -0.32813,0.53125 -0.73698,0.92448 -1.22656,1.17969 -0.48959,0.25 -1.08855,0.375 -1.79688,0.375 -0.89583,0 -1.60937,-0.25 -2.14062,-0.75 -0.52604,-0.50521 -0.78906,-1.17969 -0.78906,-2.02344 0,-0.98437 0.32812,-1.72656 0.98437,-2.22656 0.66146,-0.5 1.64583,-0.75 2.95313,-0.75 l 2.01562,0 0,-0.14063 c 0,-0.66145 -0.21875,-1.17186 -0.65625,-1.53125 -0.43229,-0.36457 -1.04167,-0.54686 -1.82812,-0.54687 -0.50001,1e-5 -0.98699,0.0599 -1.46094,0.17969 -0.47396,0.1198 -0.92969,0.29948 -1.36719,0.53906 l 0,-1.32813 c 0.52604,-0.20311 1.03646,-0.35415 1.53125,-0.45312 0.49479,-0.10416 0.97656,-0.15624 1.44531,-0.15625 1.26562,1e-5 2.21094,0.32813 2.83594,0.98437 0.62499,0.65626 0.93749,1.65105 0.9375,2.98438" />
    <path
       inkscape:connector-curvature="0"
       id="path3179-4"
       d="m 255.65625,238.04174 0,5.28125 -1.4375,0 0,-5.23438 c -1e-5,-0.82812 -0.16147,-1.44791 -0.48438,-1.85937 -0.32292,-0.41145 -0.80729,-0.61718 -1.45312,-0.61719 -0.77605,1e-5 -1.38802,0.2474 -1.83594,0.74219 -0.44792,0.49479 -0.67188,1.16927 -0.67187,2.02343 l 0,4.94532 -1.44532,0 0,-8.75 1.44532,0 0,1.35937 c 0.34374,-0.52603 0.74739,-0.91926 1.21093,-1.17969 0.46875,-0.2604 1.00781,-0.39061 1.61719,-0.39062 1.0052,1e-5 1.76562,0.31251 2.28125,0.9375 0.51562,0.6198 0.77343,1.53386 0.77344,2.74219" />
    <path
       inkscape:connector-curvature="0"
       id="path3181-5"
       d="m 267.60937,238.92455 c -1.16146,0 -1.96614,0.13282 -2.41406,0.39844 -0.44792,0.26563 -0.67187,0.71875 -0.67187,1.35937 0,0.51042 0.16666,0.91667 0.5,1.21875 0.33854,0.29688 0.79687,0.44532 1.375,0.44531 0.79687,1e-5 1.43489,-0.28124 1.91406,-0.84375 0.48437,-0.5677 0.72656,-1.32031 0.72656,-2.25781 l 0,-0.32031 -1.42969,0 m 2.86719,-0.59375 0,4.99219 -1.4375,0 0,-1.32813 c -0.32813,0.53125 -0.73698,0.92448 -1.22656,1.17969 -0.48959,0.25 -1.08855,0.375 -1.79688,0.375 -0.89583,0 -1.60937,-0.25 -2.14062,-0.75 -0.52604,-0.50521 -0.78906,-1.17969 -0.78906,-2.02344 0,-0.98437 0.32812,-1.72656 0.98437,-2.22656 0.66146,-0.5 1.64583,-0.75 2.95313,-0.75 l 2.01562,0 0,-0.14063 c 0,-0.66145 -0.21875,-1.17186 -0.65625,-1.53125 -0.43229,-0.36457 -1.04167,-0.54686 -1.82812,-0.54687 -0.50001,1e-5 -0.98699,0.0599 -1.46094,0.17969 -0.47396,0.1198 -0.92969,0.29948 -1.36719,0.53906 l 0,-1.32813 c 0.52604,-0.20311 1.03646,-0.35415 1.53125,-0.45312 0.49479,-0.10416 0.97656,-0.15624 1.44531,-0.15625 1.26562,1e-5 2.21094,0.32813 2.83594,0.98437 0.62499,0.65626 0.93749,1.65105 0.9375,2.98438" />
    <path
       inkscape:connector-curvature="0"
       id="path3183-0"
       d="m 279.20312,235.90111 0,-4.73437 1.4375,0 0,12.15625 -1.4375,0 0,-1.3125 c -0.30209,0.52083 -0.6849,0.90885 -1.14843,1.16406 -0.45834,0.25 -1.01042,0.375 -1.65625,0.375 -1.0573,0 -1.91928,-0.42188 -2.58594,-1.26563 -0.66146,-0.84374 -0.99219,-1.95312 -0.99219,-3.32812 0,-1.375 0.33073,-2.48437 0.99219,-3.32813 0.66666,-0.84374 1.52864,-1.26561 2.58594,-1.26562 0.64583,1e-5 1.19791,0.12761 1.65625,0.38281 0.46353,0.25001 0.84634,0.63543 1.14843,1.15625 m -4.89843,3.05469 c 0,1.05729 0.21614,1.88802 0.64843,2.49219 0.4375,0.59896 1.03646,0.89844 1.79688,0.89843 0.76041,1e-5 1.35937,-0.29947 1.79687,-0.89843 0.4375,-0.60417 0.65625,-1.4349 0.65625,-2.49219 0,-1.05729 -0.21875,-1.88541 -0.65625,-2.48438 -0.4375,-0.60416 -1.03646,-0.90624 -1.79687,-0.90625 -0.76042,1e-5 -1.35938,0.30209 -1.79688,0.90625 -0.43229,0.59897 -0.64843,1.42709 -0.64843,2.48438" />
    <path
       inkscape:connector-curvature="0"
       id="path3185-3"
       d="m 289.35937,235.90111 0,-4.73437 1.4375,0 0,12.15625 -1.4375,0 0,-1.3125 c -0.30209,0.52083 -0.6849,0.90885 -1.14843,1.16406 -0.45834,0.25 -1.01042,0.375 -1.65625,0.375 -1.0573,0 -1.91928,-0.42188 -2.58594,-1.26563 -0.66146,-0.84374 -0.99219,-1.95312 -0.99219,-3.32812 0,-1.375 0.33073,-2.48437 0.99219,-3.32813 0.66666,-0.84374 1.52864,-1.26561 2.58594,-1.26562 0.64583,1e-5 1.19791,0.12761 1.65625,0.38281 0.46353,0.25001 0.84634,0.63543 1.14843,1.15625 m -4.89843,3.05469 c 0,1.05729 0.21614,1.88802 0.64843,2.49219 0.4375,0.59896 1.03646,0.89844 1.79688,0.89843 0.76041,1e-5 1.35937,-0.29947 1.79687,-0.89843 0.4375,-0.60417 0.65625,-1.4349 0.65625,-2.49219 0,-1.05729 -0.21875,-1.88541 -0.65625,-2.48438 -0.4375,-0.60416 -1.03646,-0.90624 -1.79687,-0.90625 -0.76042,1e-5 -1.35938,0.30209 -1.79688,0.90625 -0.43229,0.59897 -0.64843,1.42709 -0.64843,2.48438" />
    <path
       inkscape:connector-curvature="0"
       id="path3187-6"
       d="m 298.82812,235.91674 c -0.16146,-0.0937 -0.33854,-0.16145 -0.53125,-0.20313 -0.1875,-0.0469 -0.39583,-0.0703 -0.625,-0.0703 -0.8125,10e-6 -1.4375,0.26563 -1.875,0.79687 -0.43229,0.52605 -0.64844,1.28386 -0.64843,2.27344 l 0,4.60938 -1.44532,0 0,-8.75 1.44532,0 0,1.35937 c 0.30208,-0.53124 0.69531,-0.92447 1.17968,-1.17969 0.48438,-0.2604 1.07292,-0.39061 1.76563,-0.39062 0.099,10e-6 0.20833,0.008 0.32812,0.0234 0.11979,0.0104 0.2526,0.0286 0.39844,0.0547 l 0.008,1.47657" />
    <path
       inkscape:connector-curvature="0"
       id="path3189-1"
       d="m 307.49219,238.58861 0,0.70313 -6.60938,0 c 0.0625,0.98958 0.35937,1.74479 0.89063,2.26562 0.53645,0.51563 1.28124,0.77344 2.23437,0.77344 0.55208,0 1.08593,-0.0677 1.60156,-0.20313 0.52083,-0.13541 1.03646,-0.33854 1.54688,-0.60937 l 0,1.35937 c -0.51563,0.21875 -1.04428,0.38542 -1.58594,0.5 -0.54167,0.11459 -1.09115,0.17188 -1.64844,0.17188 -1.39583,0 -2.5026,-0.40625 -3.32031,-1.21875 -0.8125,-0.8125 -1.21875,-1.91146 -1.21875,-3.29688 0,-1.43228 0.38542,-2.5677 1.15625,-3.40625 0.77604,-0.84374 1.82031,-1.26561 3.13281,-1.26562 1.17708,1e-5 2.10677,0.38022 2.78907,1.14062 0.68749,0.75522 1.03124,1.78386 1.03125,3.08594 m -1.4375,-0.42187 c -0.0104,-0.78646 -0.23178,-1.41406 -0.66407,-1.88282 -0.42708,-0.46874 -0.99479,-0.70311 -1.70312,-0.70312 -0.80209,1e-5 -1.44532,0.22657 -1.92969,0.67969 -0.47917,0.45313 -0.75521,1.09115 -0.82812,1.91406 l 5.125,-0.008" />
    <path
       inkscape:connector-curvature="0"
       id="path3191-0"
       d="m 315.42969,234.8308 0,1.35937 c -0.40626,-0.20832 -0.82813,-0.36457 -1.26563,-0.46875 -0.4375,-0.10415 -0.89063,-0.15624 -1.35937,-0.15625 -0.71355,1e-5 -1.25001,0.10939 -1.60938,0.32813 -0.35417,0.21876 -0.53125,0.54688 -0.53125,0.98437 0,0.33334 0.1276,0.59636 0.38281,0.78907 0.25521,0.1875 0.76823,0.36719 1.53907,0.53906 l 0.49218,0.10937 c 1.02083,0.21876 1.74479,0.52865 2.17188,0.92969 0.43228,0.39584 0.64843,0.95053 0.64844,1.66406 -10e-6,0.81251 -0.32293,1.45573 -0.96875,1.92969 -0.64063,0.47396 -1.52345,0.71094 -2.64844,0.71094 -0.46875,0 -0.95834,-0.0469 -1.46875,-0.14063 -0.50521,-0.0885 -1.03906,-0.22395 -1.60156,-0.40625 l 0,-1.48437 c 0.53125,0.27604 1.05468,0.48438 1.57031,0.625 0.51562,0.13542 1.02604,0.20313 1.53125,0.20312 0.67708,1e-5 1.19791,-0.11458 1.5625,-0.34375 0.36458,-0.23437 0.54687,-0.56249 0.54687,-0.98437 0,-0.39062 -0.13281,-0.6901 -0.39843,-0.89844 -0.26042,-0.20833 -0.83594,-0.40885 -1.72657,-0.60156 l -0.5,-0.11719 c -0.89062,-0.18749 -1.53385,-0.47395 -1.92968,-0.85937 -0.39584,-0.39062 -0.59375,-0.92448 -0.59375,-1.60157 0,-0.82291 0.29166,-1.45832 0.875,-1.90625 0.58333,-0.4479 1.41145,-0.67186 2.48437,-0.67187 0.53125,1e-5 1.03125,0.0391 1.5,0.11719 0.46875,0.0781 0.90104,0.19532 1.29688,0.35156" />
    <path
       inkscape:connector-curvature="0"
       id="path3193-6"
       d="m 323.77344,234.8308 0,1.35937 c -0.40626,-0.20832 -0.82813,-0.36457 -1.26563,-0.46875 -0.4375,-0.10415 -0.89063,-0.15624 -1.35937,-0.15625 -0.71355,1e-5 -1.25001,0.10939 -1.60938,0.32813 -0.35417,0.21876 -0.53125,0.54688 -0.53125,0.98437 0,0.33334 0.1276,0.59636 0.38281,0.78907 0.25521,0.1875 0.76823,0.36719 1.53907,0.53906 l 0.49218,0.10937 c 1.02083,0.21876 1.74479,0.52865 2.17188,0.92969 0.43228,0.39584 0.64843,0.95053 0.64844,1.66406 -10e-6,0.81251 -0.32293,1.45573 -0.96875,1.92969 -0.64063,0.47396 -1.52345,0.71094 -2.64844,0.71094 -0.46875,0 -0.95834,-0.0469 -1.46875,-0.14063 -0.50521,-0.0885 -1.03906,-0.22395 -1.60156,-0.40625 l 0,-1.48437 c 0.53125,0.27604 1.05468,0.48438 1.57031,0.625 0.51562,0.13542 1.02604,0.20313 1.53125,0.20312 0.67708,1e-5 1.19791,-0.11458 1.5625,-0.34375 0.36458,-0.23437 0.54687,-0.56249 0.54687,-0.98437 0,-0.39062 -0.13281,-0.6901 -0.39843,-0.89844 -0.26042,-0.20833 -0.83594,-0.40885 -1.72657,-0.60156 l -0.5,-0.11719 c -0.89062,-0.18749 -1.53385,-0.47395 -1.92968,-0.85937 -0.39584,-0.39062 -0.59375,-0.92448 -0.59375,-1.60157 0,-0.82291 0.29166,-1.45832 0.875,-1.90625 0.58333,-0.4479 1.41145,-0.67186 2.48437,-0.67187 0.53125,1e-5 1.03125,0.0391 1.5,0.11719 0.46875,0.0781 0.90104,0.19532 1.29688,0.35156" />
  </g>
  <rect
     style="fill:none;stroke:#000000;stroke-width:1.77329266;stroke-miterlimit:4;stroke-dasharray:none;stroke-dashoffset:4.55000019;stroke-opacity:1"
     id="rect3107-7-9-3"
     y="16.679089"
     x="7.6884646"
     height="254.66078"
     width="163.02496" />
  <flowRoot
     xml:space="preserve"
     id="flowRoot3497-2"
     style="font-style:normal;font-variant:normal;font-weight:normal;font-stretch:normal;font-size:19.72579384px;line-height:125%;font-family:Arial;-inkscape-font-specification:Arial;letter-spacing:0px;word-spacing:0px;fill:#ff0000;fill-opacity:1;stroke:none"
     transform="translate(6.8018157,15.792442)"><flowRegion
       id="flowRegion3499-0"><rect
         id="rect3501-6"
         width="58.676308"
         height="9.4161644"
         x="12.092144"
         y="164.41737"
         style="fill:#ff0000" /></flowRegion><flowPara
       id="flowPara3503-1"
       style="font-style:italic;font-variant:normal;font-weight:normal;font-stretch:normal;font-size:8.01360416px;font-family:Arial;-inkscape-font-specification:'Arial Italic';fill:#ff0000">Invalid email</flowPara></flowRoot>  <flowRoot
     xml:space="preserve"
     id="flowRoot3513-5"
     style="font-style:normal;font-variant:normal;font-weight:normal;font-stretch:normal;font-size:32px;line-height:125%;font-family:Arial;-inkscape-font-specification:Arial;letter-spacing:0px;word-spacing:0px;fill:#000000;fill-opacity:1;stroke:none"
     transform="translate(-321.97865,-381.11602)"><flowRegion
       id="flowRegion3515-5"><rect
         id="rect3517-4"
         width="148.70448"
         height="35.344288"
         x="339.99243"
         y="605.57904" /></flowRegion><flowPara
       id="flowPara3519-7"
       style="font-size:13px">John: john@example.org</flowPara><flowPara
       style="font-size:13px"
       id="flowPara3523-6">Jane: jane@example.org</flowPara><flowPara
       style="font-size:13px"
       id="flowPara3521-5" /></flowRoot>  <g
     id="g9926"
     transform="translate(-30.453604,-1.6406288)">
    <rect
       rx="6"
       width="40"
       height="19"
       ry="6"
       x="49.090687"
       y="199.09171"
       id="rect3067-6"
       style="fill:#007bff;fill-opacity:1;stroke:#000000;stroke-width:0.5;stroke-miterlimit:4;stroke-dasharray:0.5, 0.5;stroke-dashoffset:0" />
    <g
       transform="translate(-145.48207,-92.74338)"
       id="flowRoot3059-9"
       style="font-style:normal;font-variant:normal;font-weight:normal;font-stretch:normal;font-size:16px;line-height:125%;font-family:AlHor;-inkscape-font-specification:AlHor;letter-spacing:0px;word-spacing:0px;fill:#ffffff;fill-opacity:1;stroke:none">
      <path
         d="m 206.88672,297.58338 0,1.05811 c -0.41179,-0.19694 -0.8003,-0.34375 -1.16553,-0.44043 -0.36524,-0.0967 -0.71794,-0.14502 -1.0581,-0.14502 -0.59083,0 -1.04737,0.11459 -1.36963,0.34375 -0.31869,0.22917 -0.47803,0.55502 -0.47803,0.97754 0,0.35449 0.10563,0.62305 0.31689,0.80566 0.21485,0.17904 0.61947,0.32406 1.21387,0.43506 l 0.65527,0.13428 c 0.80924,0.15397 1.40544,0.42611 1.78858,0.8164 0.38671,0.38673 0.58007,0.90593 0.58008,1.55762 -10e-6,0.77702 -0.2614,1.36605 -0.78418,1.76709 -0.51921,0.40104 -1.28191,0.60156 -2.28809,0.60156 -0.37956,0 -0.78418,-0.043 -1.21387,-0.1289 -0.4261,-0.0859 -0.86832,-0.21306 -1.32666,-0.38135 l 0,-1.11719 c 0.44043,0.24707 0.87191,0.43327 1.29444,0.55859 0.42252,0.12533 0.83789,0.18799 1.24609,0.18799 0.61946,0 1.09749,-0.12174 1.43408,-0.36523 0.33659,-0.24349 0.50488,-0.59082 0.50489,-1.04199 -1e-5,-0.39388 -0.12175,-0.70182 -0.36524,-0.92383 -0.23991,-0.222 -0.63558,-0.38851 -1.18701,-0.49951 l -0.66064,-0.12891 c -0.80925,-0.16113 -1.3947,-0.41357 -1.75635,-0.75732 -0.36166,-0.34375 -0.54248,-0.82178 -0.54248,-1.43409 0,-0.70897 0.24886,-1.26757 0.74658,-1.67578 0.5013,-0.40819 1.19059,-0.61229 2.06787,-0.6123 0.37597,10e-6 0.75911,0.034 1.14941,0.10205 0.3903,0.068 0.78955,0.17009 1.19776,0.30615"
         id="path3162-3"
         style="font-size:11px;fill:#ffffff;fill-opacity:1"
         inkscape:connector-curvature="0" />
      <path
         d="m 211.75293,302.31531 c -0.79851,10e-6 -1.35173,0.0913 -1.65967,0.27393 -0.30794,0.18262 -0.46191,0.49414 -0.46191,0.93457 0,0.35091 0.11458,0.63021 0.34375,0.83789 0.23274,0.2041 0.54785,0.30615 0.94531,0.30615 0.54785,0 0.98649,-0.19335 1.31592,-0.58007 0.333,-0.3903 0.49951,-0.90772 0.49951,-1.55225 l 0,-0.22022 -0.98291,0 m 1.97119,-0.4082 0,3.43213 -0.98828,0 0,-0.91309 c -0.22559,0.36524 -0.50668,0.63558 -0.84326,0.81104 -0.33659,0.17187 -0.74838,0.25781 -1.23535,0.25781 -0.61589,0 -1.10645,-0.17187 -1.47168,-0.51562 -0.36166,-0.34733 -0.54248,-0.81104 -0.54248,-1.39112 0,-0.67675 0.22558,-1.187 0.67675,-1.53076 0.45476,-0.34374 1.13151,-0.51562 2.03028,-0.51562 l 1.38574,0 0,-0.0967 c 0,-0.45475 -0.1504,-0.80566 -0.45117,-1.05274 -0.29721,-0.25064 -0.71615,-0.37597 -1.25684,-0.37597 -0.34375,0 -0.67855,0.0412 -1.00439,0.12353 -0.32585,0.0824 -0.63916,0.2059 -0.93994,0.37061 l 0,-0.91309 c 0.36165,-0.13964 0.71256,-0.24348 1.05273,-0.31152 0.34017,-0.0716 0.67138,-0.10742 0.99365,-0.10742 0.87012,0 1.52002,0.22559 1.94971,0.67675 0.42968,0.45118 0.64453,1.1351 0.64453,2.05176"
         id="path3164-7"
         style="font-size:11px;fill:#ffffff;fill-opacity:1"
         inkscape:connector-curvature="0" />
      <path
         d="m 215.05615,299.32362 1.04737,0 1.87988,5.04882 1.87988,-5.04882 1.04736,0 -2.25585,6.01562 -1.34278,0 -2.25586,-6.01562"
         id="path3166-4"
         style="font-size:11px;fill:#ffffff;fill-opacity:1"
         inkscape:connector-curvature="0" />
      <path
         d="m 227.42041,302.08436 0,0.4834 -4.54395,0 c 0.043,0.68034 0.24707,1.19954 0.61231,1.55761 0.36881,0.3545 0.88086,0.53174 1.53613,0.53174 0.37956,0 0.74658,-0.0465 1.10108,-0.13965 0.35806,-0.0931 0.71256,-0.23274 1.06347,-0.41894 l 0,0.93457 c -0.35449,0.15039 -0.71794,0.26497 -1.09033,0.34375 -0.3724,0.0788 -0.75017,0.11816 -1.1333,0.11816 -0.95964,0 -1.72054,-0.27929 -2.28271,-0.83789 -0.5586,-0.55859 -0.8379,-1.31412 -0.8379,-2.2666 0,-0.9847 0.26498,-1.76529 0.79493,-2.3418 0.53352,-0.58007 1.25146,-0.87011 2.15381,-0.87011 0.80924,0 1.4484,0.2614 1.91748,0.78418 0.47265,0.51921 0.70897,1.2264 0.70898,2.12158 m -0.98828,-0.29004 c -0.007,-0.54069 -0.15935,-0.97216 -0.45654,-1.29443 -0.29363,-0.32227 -0.68393,-0.4834 -1.1709,-0.4834 -0.55144,0 -0.99366,0.15576 -1.32666,0.46728 -0.32943,0.31153 -0.51921,0.75017 -0.56934,1.31592 l 3.52344,-0.005"
         id="path3168-5"
         style="font-size:11px;fill:#ffffff;fill-opacity:1"
         inkscape:connector-curvature="0" />
    </g>
  </g>
  <text
     sodipodi:linespacing="125%"
     id="text9914"
     y="106.50481"
     x="17.255848"
     style="font-style:normal;font-variant:normal;font-weight:normal;font-stretch:normal;font-size:11.52627945px;line-height:125%;font-family:Sans;-inkscape-font-specification:AlHor;letter-spacing:0px;word-spacing:0px;fill:#000000;fill-opacity:1;stroke:none;stroke-width:1px;stroke-linecap:butt;stroke-linejoin:miter;stroke-opacity:1"
     xml:space="preserve"><tspan
       y="106.50481"
       x="17.255848"
       id="tspan9916"
       sodipodi:role="line">Email</tspan></text>
  <text
     xml:space="preserve"
     style="font-style:normal;font-variant:normal;font-weight:normal;font-stretch:normal;font-size:11.52627945px;line-height:125%;font-family:Sans;-inkscape-font-specification:AlHor;letter-spacing:0px;word-spacing:0px;fill:#000000;fill-opacity:1;stroke:none;stroke-width:1px;stroke-linecap:butt;stroke-linejoin:miter;stroke-opacity:1"
     x="17.255848"
     y="147.16609"
     id="text9918"
     sodipodi:linespacing="125%"><tspan
       sodipodi:role="line"
       id="tspan9920"
       x="17.255848"
       y="147.16609">Name</tspan></text>
  <rect
     rx="4.4824562"
     ry="4.4824562"
     y="113.32831"
     x="19.092854"
     height="19.453306"
     width="122.38422"
     id="rect8883"
     style="color:#000000;display:inline;overflow:visible;visibility:visible;fill:#ffffff;fill-opacity:1;fill-rule:evenodd;stroke:#ced4da;stroke-width:1.41152585;stroke-linecap:butt;stroke-linejoin:miter;stroke-miterlimit:4;stroke-dasharray:none;stroke-dashoffset:0;stroke-opacity:1;marker:none;enable-background:accumulate"
     inkscape:export-xdpi="72.199997"
     inkscape:export-ydpi="72.199997" />
  <rect
     inkscape:export-ydpi="72.199997"
     inkscape:export-xdpi="72.199997"
     style="color:#000000;display:inline;overflow:visible;visibility:visible;fill:#ffffff;fill-opacity:1;fill-rule:evenodd;stroke:#de8787;stroke-width:1.41152585;stroke-linecap:butt;stroke-linejoin:miter;stroke-miterlimit:4;stroke-dasharray:none;stroke-dashoffset:0;stroke-opacity:1;marker:none;enable-background:accumulate"
     id="rect9949"
     width="122.38422"
     height="19.453306"
     x="19.092854"
     y="154.64682"
     ry="4.4824562"
     rx="4.4824562" />
  <text
     sodipodi:linespacing="125%"
     id="text9951"
     y="168.41562"
     x="23.552006"
     style="font-style:normal;font-variant:normal;font-weight:normal;font-stretch:normal;font-size:11.52627945px;line-height:125%;font-family:Sans;-inkscape-font-specification:AlHor;letter-spacing:0px;word-spacing:0px;fill:#000000;fill-opacity:1;stroke:none;stroke-width:1px;stroke-linecap:butt;stroke-linejoin:miter;stroke-opacity:1"
     xml:space="preserve"><tspan
       y="168.41562"
       x="23.552006"
       id="tspan9953"
       sodipodi:role="line">jill@</tspan></text>
  <path
     sodipodi:nodetypes="ccc"
     d="m 127.59067,104.5916 78.11751,-24.638943 55.23725,-0.21298"
     id="path11581"
     style="fill:none;stroke:#000000;stroke-width:1;stroke-linecap:butt;stroke-linejoin:miter;stroke-miterlimit:4;stroke-dasharray:1, 2;stroke-dashoffset:0.30000001;stroke-opacity:1"
     inkscape:connector-curvature="0" />
  <flowRoot
     transform="translate(-122.95523,-543.52102)"
     style="font-style:normal;font-variant:normal;font-weight:normal;font-stretch:normal;font-size:32px;line-height:125%;font-family:Arial;-inkscape-font-specification:Arial;letter-spacing:0px;word-spacing:0px;fill:#000000;fill-opacity:1;stroke:none"
     id="flowRoot11583"
     xml:space="preserve"><flowRegion
       id="flowRegion11585"><rect
         y="605.57904"
         x="339.99243"
         height="16.527405"
         width="66.109657"
         id="rect11587" /></flowRegion><flowPara
       style="font-size:13px"
       id="flowPara11589">A Form</flowPara></flowRoot>  <flowRoot
     transform="translate(-123.06414,-497.88591)"
     style="font-style:normal;font-variant:normal;font-weight:normal;font-stretch:normal;font-size:32px;line-height:125%;font-family:Arial;-inkscape-font-specification:Arial;letter-spacing:0px;word-spacing:0px;fill:#000000;fill-opacity:1;stroke:none"
     id="flowRoot11591"
     xml:space="preserve"><flowRegion
       id="flowRegion11593"><rect
         y="605.57904"
         x="339.99243"
         height="16.388279"
         width="71.813843"
         id="rect11595" /></flowRegion><flowPara
       style="font-size:13px"
       id="flowPara11597">A TextInput TextInput</flowPara></flowRoot>  <path
     sodipodi:nodetypes="ccc"
     d="M 102.40605,153.38682 C 215.75892,125.5998 215.54593,125.5998 215.54593,125.5998 l 68.69228,-0.21298"
     id="path11599"
     style="fill:none;stroke:#000000;stroke-width:1;stroke-linecap:butt;stroke-linejoin:miter;stroke-miterlimit:4;stroke-dasharray:1, 2;stroke-dashoffset:0.30000001;stroke-opacity:1"
     inkscape:connector-curvature="0" />
  <g
     transform="translate(-95.648274,-239.05772)"
     id="g11601">
    <rect
       style="fill:#ffffff;stroke:#000000;stroke-width:1.00546348;stroke-miterlimit:4;stroke-dasharray:none;stroke-dashoffset:0;stroke-opacity:1"
       id="rect11603"
       width="102.30708"
       height="55.085907"
       x="427.35434"
       y="381.28122" />
    <flowRoot
       xml:space="preserve"
       id="flowRoot11605"
       style="font-style:normal;font-variant:normal;font-weight:normal;font-stretch:normal;font-size:32px;line-height:125%;font-family:Arial;-inkscape-font-specification:Arial;letter-spacing:0px;word-spacing:0px;fill:#000000;fill-opacity:1;stroke:none"
       transform="translate(4.7221172,55.091367)"><flowRegion
         id="flowRegion11607"><rect
           id="rect11609"
           width="97.393654"
           height="18.298195"
           x="427.35159"
           y="327.76114" /></flowRegion><flowPara
         id="flowPara11611"
         style="font-size:14px">John: Address Address</flowPara></flowRoot>    <rect
       style="fill:#ffffff;stroke:#000000;stroke-width:0.96088159;stroke-miterlimit:4;stroke-dasharray:none;stroke-dashoffset:0;stroke-opacity:1"
       id="rect11613"
       width="102.35166"
       height="37.816055"
       x="427.33203"
       y="400.1474" />
    <flowRoot
       xml:space="preserve"
       id="flowRoot11615"
       style="font-style:normal;font-variant:normal;font-weight:normal;font-stretch:normal;font-size:32px;line-height:125%;font-family:Arial;-inkscape-font-specification:Arial;letter-spacing:0px;word-spacing:0px;fill:#000000;fill-opacity:1;stroke:none"
       transform="translate(7.0831758,-59.026465)"><flowRegion
         id="flowRegion11617"><rect
           id="rect11619"
           width="76.340874"
           height="32.267796"
           x="425.77756"
           y="462.34149" /></flowRegion><flowPara
         id="flowPara11621"
         style="font-size:11px">name</flowPara><flowPara
         id="flowPara11623"
         style="font-size:11px">email_address</flowPara></flowRoot>  </g>
  <g
     transform="translate(-42.231324,-48.136436)"
     id="g11625">
    <rect
       style="fill:#ffffff;stroke:#000000;stroke-width:0.60190129;stroke-miterlimit:4;stroke-dasharray:none;stroke-dashoffset:0;stroke-opacity:1"
       id="rect11627"
       width="86.970245"
       height="23.221668"
       x="238.00719"
       y="220.52747" />
    <flowRoot
       xml:space="preserve"
       id="flowRoot11629"
       style="font-style:normal;font-variant:normal;font-weight:normal;font-stretch:normal;font-size:32px;line-height:125%;font-family:Arial;-inkscape-font-specification:Arial;letter-spacing:0px;word-spacing:0px;fill:#000000;fill-opacity:1;stroke:none"
       transform="translate(-184.12709,-104.6736)"><flowRegion
         id="flowRegion11631"><rect
           id="rect11633"
           width="88.933205"
           height="18.101433"
           x="427.35159"
           y="327.76114" /></flowRegion><flowPara
         id="flowPara11635"
         style="font-size:14px">: EmailField</flowPara></flowRoot>  </g>
  <path
     sodipodi:nodetypes="cc"
     inkscape:connector-curvature="0"
     id="path11637"
     d="M 53.333736,165.60281 193.0051,184.3958"
     style="fill:none;stroke:#000000;stroke-width:0.64348429px;stroke-linecap:butt;stroke-linejoin:miter;stroke-opacity:1;marker-end:url(#Arrow1Lend)" />
  <path
     sodipodi:nodetypes="cc"
     inkscape:connector-curvature="0"
     id="path11639"
     d="m 283.14572,186.72025 52.30301,0"
     style="fill:none;stroke:#000000;stroke-width:0.64027804px;stroke-linecap:butt;stroke-linejoin:miter;stroke-opacity:1;marker-end:url(#Arrow1Lend)" />
  <flowRoot
     xml:space="preserve"
     id="flowRoot11641"
     style="font-style:normal;font-variant:normal;font-weight:normal;font-stretch:normal;font-size:32px;line-height:125%;font-family:Arial;-inkscape-font-specification:Arial;letter-spacing:0px;word-spacing:0px;fill:#000000;fill-opacity:1;stroke:none"
     transform="translate(-136.78585,-398.45766)"><flowRegion
       id="flowRegion11643"><rect
         id="rect11645"
         width="95.187134"
         height="15.275292"
         x="339.99243"
         y="605.57904" /></flowRegion><flowPara
       id="flowPara11647"
       style="font-size:13px">Error message</flowPara></flowRoot>  <path
     inkscape:connector-curvature="0"
     style="fill:none;stroke:#000000;stroke-width:1;stroke-linecap:butt;stroke-linejoin:miter;stroke-miterlimit:4;stroke-dasharray:1, 2;stroke-dashoffset:0.30000001;stroke-opacity:1"
     id="path11649"
     d="m 66.878308,187.72724 134.945912,35.3008 85.38749,-0.21298"
     sodipodi:nodetypes="ccc" />
</svg>
