<?xml version="1.0" encoding="UTF-8" standalone="no"?>
<!DOCTYPE svg PUBLIC "-//W3C//DTD SVG 1.1//EN"
 "http://www.w3.org/Graphics/SVG/1.1/DTD/svg11.dtd">
<!-- Generated by graphviz version 2.43.0 (0)
 -->
<!-- Title: %3 Pages: 1 -->
<svg width="343pt" height="260pt"
 viewBox="0.00 0.00 342.73 260.00" xmlns="http://www.w3.org/2000/svg" xmlns:xlink="http://www.w3.org/1999/xlink">
<g id="graph0" class="graph" transform="scale(1 1) rotate(0) translate(4 256)">
<title>%3</title>
<polygon fill="white" stroke="transparent" points="-4,4 -4,-256 338.73,-256 338.73,4 -4,4"/>
<!-- main_egg[1.0] -->
<g id="node1" class="node">
<title>main_egg[1.0]</title>
<ellipse fill="none" stroke="black" cx="109.69" cy="-18" rx="76.89" ry="18"/>
<text text-anchor="middle" x="109.69" y="-14.3" font-family="Times,serif" font-size="14.00">main_egg[1.0]</text>
</g>
<!-- main_egg[1.1] -->
<g id="node2" class="node">
<title>main_egg[1.1]</title>
<ellipse fill="none" stroke="black" cx="76.69" cy="-234" rx="76.89" ry="18"/>
<text text-anchor="middle" x="76.69" y="-230.3" font-family="Times,serif" font-size="14.00">main_egg[1.1]</text>
</g>
<!-- main_egg[1.1]&#45;&gt;main_egg[1.0] -->
<g id="edge1" class="edge">
<title>main_egg[1.1]&#45;&gt;main_egg[1.0]</title>
<path fill="none" stroke="black" d="M69.34,-215.81C57.52,-185.53 37.57,-121.24 57.69,-72 62.29,-60.74 70.57,-50.58 79.18,-42.24"/>
<polygon fill="black" stroke="black" points="81.68,-44.7 86.76,-35.4 76.99,-39.5 81.68,-44.7"/>
</g>
<!-- dependency_egg1[1.2] -->
<g id="node3" class="node">
<title>dependency_egg1[1.2]</title>
<ellipse fill="none" stroke="black" cx="181.69" cy="-90" rx="115.08" ry="18"/>
<text text-anchor="middle" x="181.69" y="-86.3" font-family="Times,serif" font-size="14.00">dependency_egg1[1.2]</text>
</g>
<!-- main_egg[1.1]&#45;&gt;dependency_egg1[1.2] -->
<g id="edge2" class="edge">
<title>main_egg[1.1]&#45;&gt;dependency_egg1[1.2]</title>
<path fill="none" stroke="black" d="M76.48,-215.68C77.07,-196.49 80.57,-165.43 95.69,-144 105.06,-130.72 118.93,-120.1 132.8,-111.97"/>
<polygon fill="black" stroke="black" points="134.79,-114.87 141.86,-106.98 131.42,-108.73 134.79,-114.87"/>
</g>
<!-- dependency_egg2[2.3] -->
<g id="node4" class="node">
<title>dependency_egg2[2.3]</title>
<ellipse fill="none" stroke="black" cx="219.69" cy="-162" rx="115.08" ry="18"/>
<text text-anchor="middle" x="219.69" y="-158.3" font-family="Times,serif" font-size="14.00">dependency_egg2[2.3]</text>
</g>
<!-- main_egg[1.1]&#45;&gt;dependency_egg2[2.3] -->
<g id="edge3" class="edge">
<title>main_egg[1.1]&#45;&gt;dependency_egg2[2.3]</title>
<path fill="none" stroke="black" d="M108.43,-217.46C128.59,-207.6 154.93,-194.7 176.92,-183.94"/>
<polygon fill="black" stroke="black" points="178.61,-187.01 186.05,-179.47 175.53,-180.72 178.61,-187.01"/>
</g>
<!-- dependency_egg1[1.2]&#45;&gt;main_egg[1.0] -->
<g id="edge4" class="edge">
<title>dependency_egg1[1.2]&#45;&gt;main_egg[1.0]</title>
<path fill="none" stroke="black" d="M164.26,-72.05C155.24,-63.28 144.08,-52.43 134.21,-42.83"/>
<polygon fill="black" stroke="black" points="136.57,-40.25 126.96,-35.79 131.69,-45.27 136.57,-40.25"/>
</g>
<!-- dependency_egg2[2.3]&#45;&gt;dependency_egg1[1.2] -->
<g id="edge5" class="edge">
<title>dependency_egg2[2.3]&#45;&gt;dependency_egg1[1.2]</title>
<path fill="none" stroke="black" d="M210.49,-144.05C206.13,-136.01 200.8,-126.2 195.93,-117.23"/>
<polygon fill="black" stroke="black" points="198.92,-115.39 191.07,-108.28 192.77,-118.73 198.92,-115.39"/>
</g>
</g>
</svg>
