<?xml version="1.0" encoding="UTF-8" standalone="no"?>
<!DOCTYPE svg PUBLIC "-//W3C//DTD SVG 1.1//EN"
 "http://www.w3.org/Graphics/SVG/1.1/DTD/svg11.dtd">
<!-- Generated by graphviz version 2.43.0 (0)
 -->
<!-- Title: %3 Pages: 1 -->
<svg width="950pt" height="116pt"
 viewBox="0.00 0.00 949.72 116.00" xmlns="http://www.w3.org/2000/svg" xmlns:xlink="http://www.w3.org/1999/xlink">
<g id="graph0" class="graph" transform="scale(1 1) rotate(0) translate(4 112)">
<title>%3</title>
<polygon fill="white" stroke="transparent" points="-4,4 -4,-112 945.72,-112 945.72,4 -4,4"/>
<!-- MigrationSchedule main_egg[1.0] -->
<g id="node1" class="node">
<title>MigrationSchedule main_egg[1.0]</title>
<ellipse fill="none" stroke="black" cx="167.69" cy="-90" rx="167.87" ry="18"/>
<text text-anchor="middle" x="167.69" y="-86.3" font-family="Times,serif" font-size="14.00">MigrationSchedule main_egg[1.0]</text>
</g>
<!-- MigrationSchedule main_egg[1.1] -->
<g id="node2" class="node">
<title>MigrationSchedule main_egg[1.1]</title>
<ellipse fill="none" stroke="black" cx="520.69" cy="-90" rx="167.87" ry="18"/>
<text text-anchor="middle" x="520.69" y="-86.3" font-family="Times,serif" font-size="14.00">MigrationSchedule main_egg[1.1]</text>
</g>
<!-- MigrationSchedule dependency_egg1[1.2] -->
<g id="node3" class="node">
<title>MigrationSchedule dependency_egg1[1.2]</title>
<ellipse fill="none" stroke="black" cx="305.69" cy="-18" rx="206.06" ry="18"/>
<text text-anchor="middle" x="305.69" y="-14.3" font-family="Times,serif" font-size="14.00">MigrationSchedule dependency_egg1[1.2]</text>
</g>
<!-- MigrationSchedule main_egg[1.1]&#45;&gt;MigrationSchedule dependency_egg1[1.2] -->
<g id="edge1" class="edge">
<title>MigrationSchedule main_egg[1.1]&#45;&gt;MigrationSchedule dependency_egg1[1.2]</title>
<path fill="none" stroke="black" d="M470.82,-72.76C439.54,-62.58 399.03,-49.39 365.96,-38.62"/>
<polygon fill="black" stroke="black" points="366.99,-35.28 356.4,-35.51 364.82,-41.94 366.99,-35.28"/>
</g>
<!-- MigrationSchedule dependency_egg2[2.3] -->
<g id="node4" class="node">
<title>MigrationSchedule dependency_egg2[2.3]</title>
<ellipse fill="none" stroke="black" cx="735.69" cy="-18" rx="206.06" ry="18"/>
<text text-anchor="middle" x="735.69" y="-14.3" font-family="Times,serif" font-size="14.00">MigrationSchedule dependency_egg2[2.3]</text>
</g>
<!-- MigrationSchedule main_egg[1.1]&#45;&gt;MigrationSchedule dependency_egg2[2.3] -->
<g id="edge2" class="edge">
<title>MigrationSchedule main_egg[1.1]&#45;&gt;MigrationSchedule dependency_egg2[2.3]</title>
<path fill="none" stroke="black" d="M570.55,-72.76C601.83,-62.58 642.34,-49.39 675.41,-38.62"/>
<polygon fill="black" stroke="black" points="676.55,-41.94 684.97,-35.51 674.38,-35.28 676.55,-41.94"/>
</g>
</g>
</svg>
