<?xml version="1.0" encoding="UTF-8" standalone="no"?>
<!DOCTYPE svg PUBLIC "-//W3C//DTD SVG 1.1//EN"
 "http://www.w3.org/Graphics/SVG/1.1/DTD/svg11.dtd">
<!-- Generated by graphviz version 2.43.0 (0)
 -->
<!-- Title: %3 Pages: 1 -->
<svg width="1100pt" height="188pt"
 viewBox="0.00 0.00 1100.08 188.00" xmlns="http://www.w3.org/2000/svg" xmlns:xlink="http://www.w3.org/1999/xlink">
<g id="graph0" class="graph" transform="scale(1 1) rotate(0) translate(4 184)">
<title>%3</title>
<polygon fill="white" stroke="transparent" points="-4,4 -4,-184 1096.08,-184 1096.08,4 -4,4"/>
<!-- main_egg[1.0] -->
<g id="node1" class="node">
<title>main_egg[1.0]</title>
<ellipse fill="none" stroke="black" cx="236.04" cy="-162" rx="76.89" ry="18"/>
<text text-anchor="middle" x="236.04" y="-158.3" font-family="Times,serif" font-size="14.00">main_egg[1.0]</text>
</g>
<!-- dependency_egg1[1.1] -->
<g id="node2" class="node">
<title>dependency_egg1[1.1]</title>
<ellipse fill="none" stroke="black" cx="115.04" cy="-90" rx="115.08" ry="18"/>
<text text-anchor="middle" x="115.04" y="-86.3" font-family="Times,serif" font-size="14.00">dependency_egg1[1.1]</text>
</g>
<!-- main_egg[1.0]&#45;&gt;dependency_egg1[1.1] -->
<g id="edge1" class="edge">
<title>main_egg[1.0]&#45;&gt;dependency_egg1[1.1]</title>
<path fill="none" stroke="black" d="M208.58,-145.12C192.08,-135.57 170.84,-123.28 152.77,-112.83"/>
<polygon fill="black" stroke="black" points="154.06,-109.53 143.65,-107.55 150.55,-115.59 154.06,-109.53"/>
</g>
<!-- dependency_egg2[2.1] -->
<g id="node3" class="node">
<title>dependency_egg2[2.1]</title>
<ellipse fill="none" stroke="black" cx="206.04" cy="-18" rx="115.08" ry="18"/>
<text text-anchor="middle" x="206.04" y="-14.3" font-family="Times,serif" font-size="14.00">dependency_egg2[2.1]</text>
</g>
<!-- main_egg[1.0]&#45;&gt;dependency_egg2[2.1] -->
<g id="edge2" class="edge">
<title>main_egg[1.0]&#45;&gt;dependency_egg2[2.1]</title>
<path fill="none" stroke="black" d="M239.68,-143.89C242.86,-125.69 245.97,-96.23 239.04,-72 236.28,-62.36 231.21,-52.76 225.85,-44.44"/>
<polygon fill="black" stroke="black" points="228.57,-42.22 220.02,-35.96 222.8,-46.19 228.57,-42.22"/>
</g>
<!-- dependency_egg1[1.1]&#45;&gt;dependency_egg2[2.1] -->
<g id="edge3" class="edge">
<title>dependency_egg1[1.1]&#45;&gt;dependency_egg2[2.1]</title>
<path fill="none" stroke="black" d="M137.07,-72.05C148.8,-63.03 163.41,-51.79 176.16,-41.99"/>
<polygon fill="black" stroke="black" points="178.42,-44.66 184.21,-35.79 174.15,-39.11 178.42,-44.66"/>
</g>
<!-- main_egg[1.1] -->
<g id="node4" class="node">
<title>main_egg[1.1]</title>
<ellipse fill="none" stroke="black" cx="464.04" cy="-162" rx="76.89" ry="18"/>
<text text-anchor="middle" x="464.04" y="-158.3" font-family="Times,serif" font-size="14.00">main_egg[1.1]</text>
</g>
<!-- dependency_egg1[1.3] -->
<g id="node7" class="node">
<title>dependency_egg1[1.3]</title>
<ellipse fill="none" stroke="black" cx="443.04" cy="-90" rx="115.08" ry="18"/>
<text text-anchor="middle" x="443.04" y="-86.3" font-family="Times,serif" font-size="14.00">dependency_egg1[1.3]</text>
</g>
<!-- main_egg[1.1]&#45;&gt;dependency_egg1[1.3] -->
<g id="edge4" class="edge">
<title>main_egg[1.1]&#45;&gt;dependency_egg1[1.3]</title>
<path fill="none" stroke="black" d="M458.85,-143.7C456.51,-135.9 453.69,-126.51 451.09,-117.83"/>
<polygon fill="black" stroke="black" points="454.4,-116.68 448.17,-108.1 447.69,-118.69 454.4,-116.68"/>
</g>
<!-- dependency_egg2[2.4] -->
<g id="node9" class="node">
<title>dependency_egg2[2.4]</title>
<ellipse fill="none" stroke="black" cx="494.04" cy="-18" rx="115.08" ry="18"/>
<text text-anchor="middle" x="494.04" y="-14.3" font-family="Times,serif" font-size="14.00">dependency_egg2[2.4]</text>
</g>
<!-- main_egg[1.1]&#45;&gt;dependency_egg2[2.4] -->
<g id="edge5" class="edge">
<title>main_egg[1.1]&#45;&gt;dependency_egg2[2.4]</title>
<path fill="none" stroke="black" d="M513.2,-148.13C533.56,-140.11 555.15,-127.49 567.04,-108 575.37,-94.34 574.31,-86.25 567.04,-72 560.52,-59.2 549.29,-48.77 537.58,-40.65"/>
<polygon fill="black" stroke="black" points="539.32,-37.61 529.02,-35.15 535.54,-43.5 539.32,-37.61"/>
</g>
<!-- dependency_egg1[1.2] -->
<g id="node5" class="node">
<title>dependency_egg1[1.2]</title>
<ellipse fill="none" stroke="black" cx="729.04" cy="-162" rx="115.08" ry="18"/>
<text text-anchor="middle" x="729.04" y="-158.3" font-family="Times,serif" font-size="14.00">dependency_egg1[1.2]</text>
</g>
<!-- dependency_egg2[2.2] -->
<g id="node6" class="node">
<title>dependency_egg2[2.2]</title>
<ellipse fill="none" stroke="black" cx="729.04" cy="-90" rx="115.08" ry="18"/>
<text text-anchor="middle" x="729.04" y="-86.3" font-family="Times,serif" font-size="14.00">dependency_egg2[2.2]</text>
</g>
<!-- dependency_egg1[1.2]&#45;&gt;dependency_egg2[2.2] -->
<g id="edge6" class="edge">
<title>dependency_egg1[1.2]&#45;&gt;dependency_egg2[2.2]</title>
<path fill="none" stroke="black" d="M729.04,-143.7C729.04,-135.98 729.04,-126.71 729.04,-118.11"/>
<polygon fill="black" stroke="black" points="732.54,-118.1 729.04,-108.1 725.54,-118.1 732.54,-118.1"/>
</g>
<!-- dependency_egg1[1.3]&#45;&gt;dependency_egg2[2.4] -->
<g id="edge7" class="edge">
<title>dependency_egg1[1.3]&#45;&gt;dependency_egg2[2.4]</title>
<path fill="none" stroke="black" d="M455.39,-72.05C461.43,-63.75 468.84,-53.58 475.55,-44.38"/>
<polygon fill="black" stroke="black" points="478.39,-46.42 481.45,-36.28 472.74,-42.3 478.39,-46.42"/>
</g>
<!-- dependency_egg2[2.3] -->
<g id="node8" class="node">
<title>dependency_egg2[2.3]</title>
<ellipse fill="none" stroke="black" cx="977.04" cy="-162" rx="115.08" ry="18"/>
<text text-anchor="middle" x="977.04" y="-158.3" font-family="Times,serif" font-size="14.00">dependency_egg2[2.3]</text>
</g>
</g>
</svg>
